<?xml version="1.0" encoding="UTF-8" standalone="no"?>
<!DOCTYPE svg PUBLIC "-//W3C//DTD SVG 1.1//EN" "http://www.w3.org/Graphics/SVG/1.1/DTD/svg11.dtd">
<svg width="100%" height="100%" viewBox="0 0 128 128" version="1.1" xmlns="http://www.w3.org/2000/svg" xmlns:xlink="http://www.w3.org/1999/xlink" xml:space="preserve" xmlns:serif="http://www.serif.com/" style="fill-rule:evenodd;clip-rule:evenodd;">
    <path id="rect2" d="M126,16L126,112C126,119.727 119.727,126 112,126L16,126C8.273,126 2,119.727 2,112L2,16C2,8.273 8.273,2 16,2L112,2C119.727,2 126,8.273 126,16Z" style="fill:rgb(54,61,82);stroke:rgb(33,37,50);stroke-width:4px;"/>
    <g transform="matrix(0.889458,0,0,0.889458,5.74052,7)">
        <g transform="matrix(1,0,0,1,18,0.00974638)">
            <path d="M35,0C30.775,3.701 28.119,4.932 30,11C30.626,9.239 30.657,7.062 31.751,5.49C33.318,3.237 35.705,2.976 35,0Z" style="fill:rgb(43,19,2);fill-rule:nonzero;"/>
        </g>
        <g transform="matrix(1,0,0,1,18,0.00974638)">
            <path d="M36,0C35.316,1.58 35.195,1.777 34,3C35.506,3.683 36.315,3.826 38,4C35.834,5.195 34.447,5.691 32,6C31.259,10.796 31.001,13.884 27,17L32,21L33,17L37,19C37.592,16.312 37.675,14.659 37,12C39.092,11.594 39.02,11.783 40,10C37.915,10 38.276,10.138 38,8L41,9L40,5L47,2C46.316,3.58 46.195,3.777 45,5C46.712,7.964 49.391,11.776 48,15C49.139,17.055 48.818,17.049 51,17C51.429,20.752 54.646,22.745 56.5,26C59.711,31.639 61.189,37.743 62.667,44C63.194,46.233 63.56,57.496 62,55C60.768,57.561 60.365,60.178 60,63C61.3,62.35 61,62.853 61,61L62,71C62.874,68.948 62.953,67.253 63,65C68.109,64.11 67.337,60.427 67.999,56C68.87,50.165 67.095,44.19 66.84,38.325C66.68,34.649 67.729,30.707 68,27C63.533,22.794 61.906,16.638 58.291,11.729C55.17,7.492 50.358,4.632 48,0C44.806,0.013 42.729,-0.403 42,3L36,0Z" style="fill:rgb(51,35,20);fill-rule:nonzero;"/>
        </g>
        <g transform="matrix(1,0,0,1,18,0.00974638)">
            <path d="M38,0L39,1L38,0Z" style="fill:rgb(225,171,132);fill-rule:nonzero;"/>
        </g>
        <g transform="matrix(1,0,0,1,18,0.00974638)">
            <path d="M38,1C39.377,1.911 40.44,2.404 42,3C41.386,0.149 40.697,0.146 38,1Z" style="fill:rgb(89,53,33);fill-rule:nonzero;"/>
        </g>
        <g transform="matrix(1,0,0,1,18,0.00974638)">
            <path d="M46,2C42.954,3.741 42.025,5.811 41,9C43.319,9.466 44.681,9.466 47,9C45.752,8.315 45.452,8.251 44,8C45.351,5.855 46.608,4.467 46,2Z" style="fill:rgb(68,55,40);fill-rule:nonzero;"/>
        </g>
        <g transform="matrix(1,0,0,1,18,0.00974638)">
            <path d="M31,4C31.98,5.783 31.908,5.594 34,6C32.777,4.805 32.58,4.684 31,4Z" style="fill:rgb(197,141,99);fill-rule:nonzero;"/>
        </g>
        <g transform="matrix(1,0,0,1,18,0.00974638)">
            <path d="M33,4C34.223,5.195 34.42,5.316 36,6C34.777,4.805 34.58,4.684 33,4Z" style="fill:rgb(162,110,70);fill-rule:nonzero;"/>
        </g>
        <g transform="matrix(1,0,0,1,18,0.00974638)">
            <path d="M35,4L36,6C37.635,5.455 37.455,5.635 38,4L35,4Z" style="fill:rgb(94,41,20);fill-rule:nonzero;"/>
        </g>
        <g transform="matrix(1,0,0,1,18,0.00974638)">
            <path d="M41,4L40,6L42,6C42,4.147 42.3,4.65 41,4Z" style="fill:rgb(131,106,83);fill-rule:nonzero;"/>
        </g>
        <g transform="matrix(1,0,0,1,18,0.00974638)">
            <path d="M42,4L43,5L42,4Z" style="fill:rgb(177,159,130);fill-rule:nonzero;"/>
        </g>
        <g transform="matrix(1,0,0,1,18,0.00974638)">
            <path d="M30,5L31,9C31.553,6.992 31.303,6.668 30,5Z" style="fill:rgb(94,41,20);fill-rule:nonzero;"/>
        </g>
        <g transform="matrix(1,0,0,1,18,0.00974638)">
            <path d="M41.667,6.333C41.222,6.778 42.278,6.722 42.333,6.667C42.778,6.222 41.722,6.278 41.667,6.333Z" style="fill:rgb(27,14,0);fill-rule:nonzero;"/>
        </g>
        <g transform="matrix(1,0,0,1,18,0.00974638)">
            <rect x="44" y="6" width="2" height="2" style="fill:rgb(123,123,108);fill-rule:nonzero;"/>
        </g>
        <g transform="matrix(1,0,0,1,18,0.00974638)">
            <path d="M46.333,6.667C46.278,6.722 46.222,7.778 46.667,7.333C46.722,7.278 46.778,6.222 46.333,6.667Z" style="fill:rgb(90,91,80);fill-rule:nonzero;"/>
        </g>
        <g transform="matrix(1,0,0,1,18,0.00974638)">
            <path d="M28,7C26.735,9.938 25.873,12.923 25,16C19.598,17.101 19.285,29.956 19,35C16.583,33.735 14.724,33.182 12,33L12,40C7.993,39.78 5.415,40.969 2,43C4.344,43.652 6.543,43.166 9,43C11.356,41.629 13.257,41.859 16,42L16,37C23.479,38.341 22.636,31.834 23.733,26.184C24.302,23.257 25.59,21.64 24,19C30.504,16.471 33.021,12.515 28,7Z" style="fill:rgb(39,27,19);fill-rule:nonzero;"/>
        </g>
        <g transform="matrix(1,0,0,1,18,0.00974638)">
            <path d="M40,10C37.902,14.059 39.155,16.705 38.844,21C38.538,25.237 37.529,27.811 39,32C39.407,30.341 39.309,29.758 39,28L43,26L43,24C41.149,21.572 40.895,18.911 40,16L44,18C43.459,15.293 42.885,12.763 43,10C39.789,8.25 37.082,10.1 40,10Z" style="fill:rgb(18,5,0);fill-rule:nonzero;"/>
        </g>
        <g transform="matrix(1,0,0,1,18,0.00974638)">
            <path d="M43,9L44,13C46.106,13.069 47.945,13.503 50,14C48.267,11.086 46.183,10.107 43,9Z" style="fill:rgb(90,91,80);fill-rule:nonzero;"/>
        </g>
        <g transform="matrix(1,0,0,1,18,0.00974638)">
            <path d="M46.333,9.667C46.278,9.722 46.222,10.778 46.667,10.333C46.722,10.278 46.778,9.222 46.333,9.667Z" style="fill:rgb(147,137,120);fill-rule:nonzero;"/>
        </g>
        <g transform="matrix(1,0,0,1,18,0.00974638)">
            <path d="M42,11C42.906,13.835 43.478,15.426 46,17C45.151,14.193 44.452,12.612 42,11Z" style="fill:rgb(39,36,29);fill-rule:nonzero;"/>
        </g>
        <g transform="matrix(1,0,0,1,18,0.00974638)">
            <path d="M37,12L38,13L37,12Z" style="fill:rgb(189,165,135);fill-rule:nonzero;"/>
        </g>
        <g transform="matrix(1,0,0,1,18,0.00974638)">
            <path d="M45,12C45.513,14.475 45.604,14.575 48,14C46.861,12.985 46.388,12.691 45,12Z" style="fill:rgb(78,63,45);fill-rule:nonzero;"/>
        </g>
        <g transform="matrix(1,0,0,1,18,0.00974638)">
            <path d="M47,14L48,15L47,14Z" style="fill:rgb(35,18,3);fill-rule:nonzero;"/>
        </g>
        <g transform="matrix(1,0,0,1,18,0.00974638)">
            <path d="M48.667,14.333C48.222,14.778 49.278,14.722 49.333,14.667C49.778,14.222 48.722,14.278 48.667,14.333Z" style="fill:rgb(86,65,51);fill-rule:nonzero;"/>
        </g>
        <g transform="matrix(1,0,0,1,18,0.00974638)">
            <path d="M46,15L45,19C46.635,19.545 46.455,19.365 47,21C48.301,18.753 48.394,17.566 48,15L46,15Z" style="fill:rgb(102,83,64);fill-rule:nonzero;"/>
        </g>
        <g transform="matrix(1,0,0,1,18,0.00974638)">
            <path d="M40,16C41.001,17.924 41.078,18.099 43,19C41.999,17.076 41.923,16.902 40,16Z" style="fill:rgb(54,39,31);fill-rule:nonzero;"/>
        </g>
        <g transform="matrix(1,0,0,1,18,0.00974638)">
            <path d="M33,17L32,21C29.251,18.646 27.546,18.341 24,19C24.598,20.195 24.466,19.977 26,21C21.49,26.489 25.384,37.512 16,37C15.711,39.963 15.933,40.876 18,43L19,39L26,39C24.571,33.937 28.453,30.059 26,25L30,25C30,23.203 29.986,23.479 29,22C33.852,21.956 36.91,21.734 39,17C37.686,17.768 37.768,17.686 37,19C35.406,17.703 34.982,17.465 33,17Z" style="fill:rgb(64,37,23);fill-rule:nonzero;"/>
        </g>
        <g transform="matrix(1,0,0,1,18,0.00974638)">
            <path d="M44,17C41.862,19.422 40.228,21.569 43,24C43.466,21.488 44.59,19.493 44,17Z" style="fill:rgb(38,22,10);fill-rule:nonzero;"/>
        </g>
        <g transform="matrix(1,0,0,1,18,0.00974638)">
            <path d="M50,17C48.739,19.01 47.81,20.778 47,23C48.739,22.938 49.375,23.478 51,24C51.472,22.584 51.814,22.186 53,21L50,17Z" style="fill:rgb(73,56,35);fill-rule:nonzero;"/>
        </g>
        <g transform="matrix(1,0,0,1,18,0.00974638)">
            <path d="M38,18L36,22C38.948,21.688 39.79,20.524 38,18Z" style="fill:rgb(119,86,55);fill-rule:nonzero;"/>
        </g>
        <g transform="matrix(1,0,0,1,18,0.00974638)">
            <path d="M48.333,18.667C48.278,18.722 48.222,19.778 48.667,19.333C48.722,19.278 48.778,18.222 48.333,18.667Z" style="fill:rgb(31,9,2);fill-rule:nonzero;"/>
        </g>
        <g transform="matrix(1,0,0,1,18,0.00974638)">
            <path d="M43,30C45.547,26.769 46.045,22.944 47,19C42.222,21.458 42.39,25.076 43,30Z" style="fill:rgb(81,55,44);fill-rule:nonzero;"/>
        </g>
        <g transform="matrix(1,0,0,1,18,0.00974638)">
            <path d="M46,21C45.014,22.479 45,22.203 45,24C46.289,22.557 46.401,22.766 46,21Z" style="fill:rgb(38,22,10);fill-rule:nonzero;"/>
        </g>
        <g transform="matrix(1,0,0,1,18,0.00974638)">
            <path d="M52,21C51.424,22.826 50.946,24.368 50,26L52,29C49.751,30.154 49.154,30.751 48,33C52.015,29.819 54.091,25.997 52,21Z" style="fill:rgb(123,123,108);fill-rule:nonzero;"/>
        </g>
        <g transform="matrix(1,0,0,1,18,0.00974638)">
            <path d="M53,21L54,26C54.651,23.766 54.318,22.926 53,21Z" style="fill:rgb(86,65,51);fill-rule:nonzero;"/>
        </g>
        <g transform="matrix(1,0,0,1,18,0.00974638)">
            <path d="M29,22L30,25L26,25C27.483,29.862 25.496,33.367 24,38L29,37L28,42C31.475,39.516 31.592,33.062 33,29C35.581,29.126 36.426,29.046 38,27C36.203,27 36.478,27.014 35,28L36,25L32,26C32.338,24.328 32.537,24.69 31,24C32.478,23.014 32.203,23 34,23C32.231,22.221 30.964,22.088 29,22Z" style="fill:rgb(80,49,27);fill-rule:nonzero;"/>
        </g>
        <g transform="matrix(1,0,0,1,18,0.00974638)">
            <path d="M31,23C32.364,24.819 32.492,24.031 32,26C33.977,26.046 35.177,26.255 37,27C36.752,24.838 36.213,23.866 35,22L31,23Z" style="fill:rgb(115,73,51);fill-rule:nonzero;"/>
        </g>
        <g transform="matrix(1,0,0,1,18,0.00974638)">
            <rect x="35" y="22" width="2" height="2" style="fill:rgb(171,119,87);fill-rule:nonzero;"/>
        </g>
        <g transform="matrix(1,0,0,1,18,0.00974638)">
            <path d="M38,22C37.014,23.479 37,23.203 37,25C38.289,23.557 38.401,23.766 38,22Z" style="fill:rgb(81,56,31);fill-rule:nonzero;"/>
        </g>
        <g transform="matrix(1,0,0,1,18,0.00974638)">
            <path d="M48,22C46.265,24.563 46.35,25.98 47,29C48.353,27.45 48.687,27.125 47,26L51,25C50.028,23.73 49.27,22.973 48,22Z" style="fill:rgb(101,79,47);fill-rule:nonzero;"/>
        </g>
        <g transform="matrix(1,0,0,1,18,0.00974638)">
            <path d="M51,24L50,26L52,26C52,24.147 52.3,24.65 51,24Z" style="fill:rgb(158,153,131);fill-rule:nonzero;"/>
        </g>
        <g transform="matrix(1,0,0,1,18,0.00974638)">
            <path d="M53.333,24.667C53.278,24.722 53.222,25.778 53.667,25.333C53.722,25.278 53.778,24.222 53.333,24.667Z" style="fill:rgb(39,29,18);fill-rule:nonzero;"/>
        </g>
        <g transform="matrix(1,0,0,1,18,0.00974638)">
            <path d="M55,24C55.352,26.809 55.273,28.468 54,31C58.275,30.115 57.405,26.816 55,24Z" style="fill:rgb(78,47,36);fill-rule:nonzero;"/>
        </g>
        <g transform="matrix(1,0,0,1,18,0.00974638)">
            <path d="M47.667,25.333C47.222,25.778 48.278,25.722 48.333,25.667C48.778,25.222 47.722,25.278 47.667,25.333Z" style="fill:rgb(171,148,121);fill-rule:nonzero;"/>
        </g>
        <g transform="matrix(1,0,0,1,18,0.00974638)">
            <path d="M49,25C48.677,27.032 48.66,27.982 49,30C50.381,27.859 50.346,27.176 49,25Z" style="fill:rgb(50,52,41);fill-rule:nonzero;"/>
        </g>
        <g transform="matrix(1,0,0,1,18,0.00974638)">
            <path d="M35.333,26.667C35.278,26.722 35.222,27.778 35.667,27.333C35.722,27.278 35.778,26.222 35.333,26.667Z" style="fill:rgb(145,117,85);fill-rule:nonzero;"/>
        </g>
        <g transform="matrix(1,0,0,1,18,0.00974638)">
            <path d="M41,26C40.455,27.635 40.635,27.455 39,28C39.939,30.637 40.58,31.618 43,33C42.792,31.339 42.505,31.46 44,31C43.181,28.894 42.513,27.653 41,26Z" style="fill:rgb(63,37,32);fill-rule:nonzero;"/>
        </g>
        <g transform="matrix(1,0,0,1,18,0.00974638)">
            <path d="M45,26C45.684,27.58 45.805,27.777 47,29C46.316,27.42 46.195,27.223 45,26Z" style="fill:rgb(161,138,111);fill-rule:nonzero;"/>
        </g>
        <g transform="matrix(1,0,0,1,18,0.00974638)">
            <path d="M53,26C53.406,28.092 53.217,28.02 55,29C54.309,27.612 54.015,27.139 53,26Z" style="fill:rgb(97,86,71);fill-rule:nonzero;"/>
        </g>
        <g transform="matrix(1,0,0,1,18,0.00974638)">
            <path d="M54,26C54.216,28.45 54.436,28.686 52,29C53.506,29.683 54.315,29.826 56,30C55.693,27.877 55.618,27.314 54,26Z" style="fill:rgb(47,36,32);fill-rule:nonzero;"/>
        </g>
        <g transform="matrix(1,0,0,1,18,0.00974638)">
            <path d="M51.333,27.667C51.278,27.722 51.222,28.778 51.667,28.333C51.722,28.278 51.778,27.222 51.333,27.667Z" style="fill:rgb(101,93,86);fill-rule:nonzero;"/>
        </g>
        <g transform="matrix(1,0,0,1,18,0.00974638)">
            <path d="M44,28C43.954,29.977 43.745,31.177 43,33C46.17,32.604 46.539,29.864 44,28M33.333,29.667C33.278,29.722 33.222,30.778 33.667,30.333C33.722,30.278 33.778,29.222 33.333,29.667Z" style="fill:rgb(131,106,83);fill-rule:nonzero;"/>
        </g>
        <g transform="matrix(1,0,0,1,18,0.00974638)">
            <path d="M32,46C32.122,41.934 32.737,39.552 36,37C35.335,33.698 35.449,32.005 37,29C32.409,31.407 26.58,42.368 32,46Z" style="fill:rgb(17,0,0);fill-rule:nonzero;"/>
        </g>
        <g transform="matrix(1,0,0,1,18,0.00974638)">
            <path d="M37,29C36.146,31.697 36.149,32.386 39,33C38.436,31.248 38.081,30.458 37,29Z" style="fill:rgb(26,22,17);fill-rule:nonzero;"/>
        </g>
        <g transform="matrix(1,0,0,1,18,0.00974638)">
            <path d="M46,32C47.388,31.309 47.861,31.015 49,30C46.604,29.425 46.513,29.525 46,32Z" style="fill:rgb(72,62,48);fill-rule:nonzero;"/>
        </g>
        <g transform="matrix(1,0,0,1,18,0.00974638)">
            <path d="M48,29L49,30L48,29Z" style="fill:rgb(135,129,113);fill-rule:nonzero;"/>
        </g>
        <g transform="matrix(1,0,0,1,18,0.00974638)">
            <path d="M44,30L42,31C43.482,31.791 44.796,31.87 44,30Z" style="fill:rgb(70,63,56);fill-rule:nonzero;"/>
        </g>
        <g transform="matrix(1,0,0,1,18,0.00974638)">
            <path d="M51,30C50.167,33.312 50.153,36.276 48,39C51.004,39.776 53.242,36.254 56,35C56.168,37.403 56.197,38.46 58,40C56.701,35.3 54.913,32.907 51,30Z" style="fill:rgb(66,54,48);fill-rule:nonzero;"/>
        </g>
        <g transform="matrix(1,0,0,1,18,0.00974638)">
            <path d="M52,30C52.902,31.923 53.076,31.999 55,33C54.101,30.876 54.124,30.899 52,30Z" style="fill:rgb(90,91,80);fill-rule:nonzero;"/>
        </g>
        <g transform="matrix(1,0,0,1,18,0.00974638)">
            <path d="M57,30L58,31L57,30Z" style="fill:rgb(131,106,83);fill-rule:nonzero;"/>
        </g>
        <g transform="matrix(1,0,0,1,18,0.00974638)">
            <path d="M58,30C57.48,36.014 60.517,41.927 61,48C64.094,43.262 61.346,34.207 58,30Z" style="fill:rgb(89,54,40);fill-rule:nonzero;"/>
        </g>
        <g transform="matrix(1,0,0,1,18,0.00974638)">
            <path d="M16.667,31.333C16.222,31.778 17.278,31.722 17.333,31.667C17.778,31.222 16.722,31.278 16.667,31.333Z" style="fill:rgb(37,29,22);fill-rule:nonzero;"/>
        </g>
        <g transform="matrix(1,0,0,1,18,0.00974638)">
            <path d="M22.333,31.667C22.278,31.722 22.222,32.778 22.667,32.333C22.722,32.278 22.778,31.222 22.333,31.667Z" style="fill:rgb(86,65,51);fill-rule:nonzero;"/>
        </g>
        <g transform="matrix(1,0,0,1,18,0.00974638)">
            <path d="M32,31L30,35C31.86,33.734 32.369,33.223 32,31Z" style="fill:rgb(115,73,51);fill-rule:nonzero;"/>
        </g>
        <g transform="matrix(1,0,0,1,18,0.00974638)">
            <path d="M35,31C34.952,33.33 34.797,33.006 37,34L36,37C42.868,40.416 46.229,38.407 48,31L38,35C37.157,33.231 36.459,32.312 35,31Z" style="fill:rgb(47,36,32);fill-rule:nonzero;"/>
        </g>
        <g transform="matrix(1,0,0,1,18,0.00974638)">
            <path d="M49,31C48.106,33.042 47.464,34.828 47,37C49.25,35.292 49.808,33.722 49,31Z" style="fill:rgb(121,99,79);fill-rule:nonzero;"/>
        </g>
        <g transform="matrix(1,0,0,1,18,0.00974638)">
            <path d="M56,31C55.014,32.478 55,32.203 55,34C56.512,35.893 57.148,37.707 58,40C56.463,40.69 56.662,40.328 57,42C55.945,40.276 55.964,40.079 56,38C53.791,39.855 53.559,42.19 53,45C56.054,45.504 57.092,45.016 58,42C58.816,44.219 59.046,45.632 59,48C63.14,44.325 58.995,34.608 56,31Z" style="fill:rgb(47,36,32);fill-rule:nonzero;"/>
        </g>
        <g transform="matrix(1,0,0,1,18,0.00974638)">
            <path d="M38,35C40.124,34.101 40.101,34.124 41,32C38.876,32.899 38.899,32.876 38,35Z" style="fill:rgb(67,67,67);fill-rule:nonzero;"/>
        </g>
        <g transform="matrix(1,0,0,1,18,0.00974638)">
            <path d="M50,33L49,37C50.146,35.359 50.393,34.924 50,33Z" style="fill:rgb(102,83,64);fill-rule:nonzero;"/>
        </g>
        <g transform="matrix(1,0,0,1,18,0.00974638)">
            <path d="M68,33C64.442,40.039 68.567,49.312 67.498,57C66.94,61.009 67.187,63.646 63,65C62.465,73.253 62.136,80.792 61,89C62.457,90.103 62.897,90.543 64,92C67.093,88.249 68.019,84.75 67,80C71.923,78.021 71.851,71.836 71.876,67C71.936,55.756 72.601,43.529 68,33Z" style="fill:rgb(42,31,19);fill-rule:nonzero;"/>
        </g>
        <g transform="matrix(1,0,0,1,18,0.00974638)">
            <path d="M35,34C35.545,35.635 35.365,35.455 37,36L37,34L35,34Z" style="fill:rgb(101,93,86);fill-rule:nonzero;"/>
        </g>
        <g transform="matrix(1,0,0,1,18,0.00974638)">
            <path d="M46,34L46,38C46.71,36.241 46.71,35.76 46,34Z" style="fill:rgb(89,54,40);fill-rule:nonzero;"/>
        </g>
        <g transform="matrix(1,0,0,1,18,0.00974638)">
            <path d="M30,35L30,37C31.635,36.455 31.455,36.635 32,35L30,35Z" style="fill:rgb(145,117,85);fill-rule:nonzero;"/>
        </g>
        <g transform="matrix(1,0,0,1,18,0.00974638)">
            <path d="M43.667,35.333C43.222,35.778 44.278,35.722 44.333,35.667C44.778,35.222 43.722,35.278 43.667,35.333Z" style="fill:rgb(83,71,61);fill-rule:nonzero;"/>
        </g>
        <g transform="matrix(1,0,0,1,18,0.00974638)">
            <path d="M53,35C52.677,37.032 52.66,37.982 53,40C54.151,38.326 54.585,37 55,35L53,35Z" style="fill:rgb(99,71,62);fill-rule:nonzero;"/>
        </g>
        <g transform="matrix(1,0,0,1,18,0.00974638)">
            <path d="M55,35C55.031,36.832 54.92,36.559 56,38C55.749,36.548 55.685,36.248 55,35Z" style="fill:rgb(113,106,95);fill-rule:nonzero;"/>
        </g>
        <g transform="matrix(1,0,0,1,18,0.00974638)">
            <path d="M31,36L32,37L31,36Z" style="fill:rgb(87,44,19);fill-rule:nonzero;"/>
        </g>
        <g transform="matrix(1,0,0,1,18,0.00974638)">
            <path d="M24,39L27,42C28.062,40.307 28.52,38.96 29,37C27.106,37.465 25.723,38.066 24,39Z" style="fill:rgb(110,48,24);fill-rule:nonzero;"/>
        </g>
        <g transform="matrix(1,0,0,1,18,0.00974638)">
            <path d="M34,37L32,41C34.562,40.264 34.983,39.481 36,37L34,37Z" style="fill:rgb(32,32,29);fill-rule:nonzero;"/>
        </g>
        <g transform="matrix(1,0,0,1,18,0.00974638)">
            <path d="M36,37C35.438,38.801 35.176,40.122 35,42L39,44C38.698,41.096 37.787,39.332 36,37Z" style="fill:rgb(75,57,41);fill-rule:nonzero;"/>
        </g>
        <g transform="matrix(1,0,0,1,18,0.00974638)">
            <path d="M47,40C48.924,38.999 49.099,38.923 50,37C47.636,37.483 47.482,37.636 47,40Z" style="fill:rgb(44,32,23);fill-rule:nonzero;"/>
        </g>
        <g transform="matrix(1,0,0,1,18,0.00974638)">
            <path d="M51,37C50.675,41.16 50.046,44.17 52,48L55,48C54.128,45.355 53.607,43.724 54,41C53.041,39.403 52.274,38.341 51,37Z" style="fill:rgb(89,54,40);fill-rule:nonzero;"/>
        </g>
        <g transform="matrix(1,0,0,1,18,0.00974638)">
            <path d="M37,38C37.936,39.949 38.392,40.55 40,42C39.064,40.052 38.608,39.45 37,38Z" style="fill:rgb(96,79,59);fill-rule:nonzero;"/>
        </g>
        <g transform="matrix(1,0,0,1,18,0.00974638)">
            <path d="M38,38C39.45,39.608 40.051,40.064 42,41C40.55,39.392 39.949,38.936 38,38Z" style="fill:rgb(44,3,0);fill-rule:nonzero;"/>
        </g>
        <g transform="matrix(1,0,0,1,18,0.00974638)">
            <path d="M45,38C44.11,39.745 43.547,41.125 43,43C44.58,42.316 44.777,42.195 46,41C47.186,42.036 47.604,42.339 49,43L47,38L45,38Z" style="fill:rgb(71,39,22);fill-rule:nonzero;"/>
        </g>
        <g transform="matrix(1,0,0,1,18,0.00974638)">
            <path d="M19,39L18,44L23,45L22,52L25,53C23.774,57.15 24.002,60.807 25,65L28,65C27.935,61.953 26.483,59.851 26.111,56.972C25.762,54.268 27.814,52.478 27.778,50C27.728,46.572 21.892,40.438 19,39Z" style="fill:rgb(104,42,19);fill-rule:nonzero;"/>
        </g>
        <g transform="matrix(1,0,0,1,18,0.00974638)">
            <path d="M20,39C22.222,40.663 24.295,41.355 27,42C25.12,39.526 23.048,39.277 20,39Z" style="fill:rgb(135,82,58);fill-rule:nonzero;"/>
        </g>
        <g transform="matrix(1,0,0,1,18,0.00974638)">
            <path d="M55.333,39.667C55.278,39.722 55.222,40.778 55.667,40.333C55.722,40.278 55.778,39.222 55.333,39.667Z" style="fill:rgb(22,10,1);fill-rule:nonzero;"/>
        </g>
        <g transform="matrix(1,0,0,1,18,0.00974638)">
            <path d="M42.667,40.333C42.222,40.778 43.278,40.722 43.333,40.667C43.778,40.222 42.722,40.278 42.667,40.333Z" style="fill:rgb(103,63,42);fill-rule:nonzero;"/>
        </g>
        <g transform="matrix(1,0,0,1,18,0.00974638)">
            <path d="M48,40C48,41.797 48.014,41.522 49,43C50.195,41.777 50.316,41.58 51,40L48,40Z" style="fill:rgb(119,86,55);fill-rule:nonzero;"/>
        </g>
        <g transform="matrix(1,0,0,1,18,0.00974638)">
            <path d="M9.333,41.667C9.278,41.722 9.222,42.778 9.667,42.333C9.722,42.278 9.778,41.222 9.333,41.667Z" style="fill:rgb(150,104,66);fill-rule:nonzero;"/>
        </g>
        <g transform="matrix(1,0,0,1,18,0.00974638)">
            <path d="M10,41C12.057,42.582 13.387,42.826 16,43L16,45C12.885,44.628 10.113,43.719 7,44L9,50C5.7,50.704 5.609,52.861 5,56C6.422,54.212 6.697,53.294 7,51L10,51L10,46C13.573,45.958 15.84,45.996 18,43C15.362,42.103 12.738,41.531 10,41Z" style="fill:rgb(61,26,3);fill-rule:nonzero;"/>
        </g>
        <g transform="matrix(1,0,0,1,18,0.00974638)">
            <path d="M21,41C23.291,44.038 25.46,45.609 29,47L29,42L21,41Z" style="fill:rgb(87,37,12);fill-rule:nonzero;"/>
        </g>
        <g transform="matrix(1,0,0,1,18,0.00974638)">
            <path d="M32,41L32,46L29,45C30.447,48.201 31.985,51.161 35,53C33.522,53.986 33.797,54 32,54L33,62C37.243,58.362 39.957,53.112 33,51C33.363,48.768 33.363,47.232 33,45C35.543,44.474 36.535,44.122 38,42L32,41Z" style="fill:rgb(49,30,22);fill-rule:nonzero;"/>
        </g>
        <g transform="matrix(1,0,0,1,18,0.00974638)">
            <path d="M40.333,41.667C40.278,41.722 40.222,42.778 40.667,42.333C40.722,42.278 40.778,41.222 40.333,41.667Z" style="fill:rgb(197,141,99);fill-rule:nonzero;"/>
        </g>
        <g transform="matrix(1,0,0,1,18,0.00974638)">
            <path d="M41.667,41.333C41.222,41.778 42.278,41.722 42.333,41.667C42.778,41.222 41.722,41.278 41.667,41.333Z" style="fill:rgb(135,82,58);fill-rule:nonzero;"/>
        </g>
        <g transform="matrix(1,0,0,1,18,0.00974638)">
            <path d="M46,41L45,43L47,43C47,41.147 47.3,41.65 46,41Z" style="fill:rgb(99,71,62);fill-rule:nonzero;"/>
        </g>
        <g transform="matrix(1,0,0,1,18,0.00974638)">
            <path d="M53,41C52.014,42.478 52,42.203 52,44C53.289,42.557 53.401,42.766 53,41Z" style="fill:rgb(121,99,79);fill-rule:nonzero;"/>
        </g>
        <g transform="matrix(1,0,0,1,18,0.00974638)">
            <path d="M55.667,41.333C55.222,41.778 56.278,41.722 56.333,41.667C56.778,41.222 55.722,41.278 55.667,41.333Z" style="fill:rgb(80,79,72);fill-rule:nonzero;"/>
        </g>
        <g transform="matrix(1,0,0,1,18,0.00974638)">
            <path d="M6.667,42.333C6.222,42.778 7.278,42.722 7.333,42.667C7.778,42.222 6.722,42.278 6.667,42.333Z" style="fill:rgb(104,42,19);fill-rule:nonzero;"/>
        </g>
        <g transform="matrix(1,0,0,1,18,0.00974638)">
            <path d="M10,42L11,43L10,42Z" style="fill:rgb(208,160,124);fill-rule:nonzero;"/>
        </g>
        <g transform="matrix(1,0,0,1,18,0.00974638)">
            <path d="M41,42L42,43L41,42Z" style="fill:rgb(248,200,154);fill-rule:nonzero;"/>
        </g>
        <g transform="matrix(1,0,0,1,18,0.00974638)">
            <path d="M42,42L43,47C45.065,46.292 47.037,45.147 49,46C50.355,42.406 44.614,42.662 42,42Z" style="fill:rgb(103,52,30);fill-rule:nonzero;"/>
        </g>
        <g transform="matrix(1,0,0,1,18,0.00974638)">
            <path d="M58,42L57,46C59.923,45.361 59.856,44.134 58,42Z" style="fill:rgb(61,61,55);fill-rule:nonzero;"/>
        </g>
        <g transform="matrix(1,0,0,1,18,0.00974638)">
            <path d="M5.667,43.333C5.222,43.778 6.278,43.722 6.333,43.667C6.778,43.222 5.722,43.278 5.667,43.333Z" style="fill:rgb(147,71,36);fill-rule:nonzero;"/>
        </g>
        <g transform="matrix(1,0,0,1,18,0.00974638)">
            <path d="M7,43L8,44L7,43Z" style="fill:rgb(208,160,124);fill-rule:nonzero;"/>
        </g>
        <g transform="matrix(1,0,0,1,18,0.00974638)">
            <path d="M10,43C12.092,44.574 13.185,45.018 15,43L10,43Z" style="fill:rgb(197,141,99);fill-rule:nonzero;"/>
        </g>
        <g transform="matrix(1,0,0,1,18,0.00974638)">
            <path d="M12.667,43.333C12.222,43.778 13.278,43.722 13.333,43.667C13.778,43.222 12.722,43.278 12.667,43.333Z" style="fill:rgb(93,49,24);fill-rule:nonzero;"/>
        </g>
        <g transform="matrix(1,0,0,1,18,0.00974638)">
            <path d="M15.333,43.667C15.278,43.722 15.222,44.778 15.667,44.333C15.722,44.278 15.778,43.222 15.333,43.667Z" style="fill:rgb(142,92,64);fill-rule:nonzero;"/>
        </g>
        <g transform="matrix(1,0,0,1,18,0.00974638)">
            <path d="M39,43C39.545,44.635 39.365,44.455 41,45L41,43L39,43Z" style="fill:rgb(139,81,42);fill-rule:nonzero;"/>
        </g>
        <g transform="matrix(1,0,0,1,18,0.00974638)">
            <path d="M41,43L42,44L41,43Z" style="fill:rgb(199,156,101);fill-rule:nonzero;"/>
        </g>
        <g transform="matrix(1,0,0,1,18,0.00974638)">
            <path d="M1,44L1,53C2.663,50.778 3.355,48.705 4,46L1,44Z" style="fill:rgb(35,18,3);fill-rule:nonzero;"/>
        </g>
        <g transform="matrix(1,0,0,1,18,0.00974638)">
            <path d="M2,44C3.334,45.902 3.663,45.966 6,46C4.457,44.733 3.952,44.511 2,44Z" style="fill:rgb(100,31,2);fill-rule:nonzero;"/>
        </g>
        <g transform="matrix(1,0,0,1,18,0.00974638)">
            <path d="M5,44L7,47C7.699,45.007 6.994,44.847 5,44Z" style="fill:rgb(200,126,56);fill-rule:nonzero;"/>
        </g>
        <g transform="matrix(1,0,0,1,18,0.00974638)">
            <path d="M10,46L10,51L7,51L6,56C4.594,54.609 3.729,53.926 2,53C2.878,55.018 3.652,56.232 5,58L0,59C1.238,66.828 7.813,64.902 14,66C12.522,66.986 12.797,67 11,67C11.813,77.654 23.866,83.697 25,95C28.769,94.987 31.827,95.352 34,92C29.893,90.715 28.745,88.1 28,84C20.519,81.603 20.09,75.835 16,70L13,72L12,71L12,69L16,69C16.001,59.856 20.274,52.819 21,44C17.215,44.501 13.88,45.887 10,46Z" style="fill:rgb(39,29,18);fill-rule:nonzero;"/>
        </g>
        <g transform="matrix(1,0,0,1,18,0.00974638)">
            <path d="M21,44C20.624,47.583 19.942,50.64 23,53C22.045,54.767 21.434,55.608 20,57C21.699,59.955 21.891,61.711 21,65C22.284,66.393 21.985,66.144 21,68L23,71L25,71C26.253,68.997 27.242,67.233 28,65C26.085,63.723 26.915,63.723 25,65C24.212,60.751 23.996,57.23 25,53C23.522,52.014 23.797,52 22,52C22.664,48.806 23.073,46.619 21,44Z" style="fill:rgb(87,37,18);fill-rule:nonzero;"/>
        </g>
        <g transform="matrix(1,0,0,1,18,0.00974638)">
            <path d="M36,44L38,49L40,49C40.547,45.44 39.49,44.581 36,44Z" style="fill:rgb(63,39,15);fill-rule:nonzero;"/>
        </g>
        <g transform="matrix(1,0,0,1,18,0.00974638)">
            <path d="M41,44C40.953,46.172 40.606,47.912 40,50L45,49C43.794,46.954 42.752,45.59 41,44Z" style="fill:rgb(171,119,87);fill-rule:nonzero;"/>
        </g>
        <g transform="matrix(1,0,0,1,18,0.00974638)">
            <path d="M48,44C45.297,47.958 44.826,52.146 50,54C49.339,52.604 49.036,52.186 48,51C49.853,51 49.35,51.3 50,50C48.085,48.723 48.915,48.723 47,50C47.788,47.781 48.409,46.274 48,44Z" style="fill:rgb(132,68,36);fill-rule:nonzero;"/>
        </g>
        <g transform="matrix(1,0,0,1,18,0.00974638)">
            <path d="M6,45C5.014,46.478 5,46.203 5,48C6.766,47.021 6.955,46.778 6,45Z" style="fill:rgb(255,191,89);fill-rule:nonzero;"/>
        </g>
        <g transform="matrix(1,0,0,1,18,0.00974638)">
            <path d="M33,45L34,49L36,49L37,45L33,45Z" style="fill:rgb(78,47,36);fill-rule:nonzero;"/>
        </g>
        <g transform="matrix(1,0,0,1,18,0.00974638)">
            <rect x="26" y="46" width="2" height="2" style="fill:rgb(139,81,42);fill-rule:nonzero;"/>
        </g>
        <g transform="matrix(1,0,0,1,18,0.00974638)">
            <path d="M41.333,46.667C41.278,46.722 41.222,47.778 41.667,47.333C41.722,47.278 41.778,46.222 41.333,46.667Z" style="fill:rgb(126,69,44);fill-rule:nonzero;"/>
        </g>
        <g transform="matrix(1,0,0,1,18,0.00974638)">
            <path d="M44,48L47,47C45.222,46.045 44.979,46.234 44,48Z" style="fill:rgb(197,141,99);fill-rule:nonzero;"/>
        </g>
        <g transform="matrix(1,0,0,1,18,0.00974638)">
            <path d="M48,49C49.923,48.099 49.999,47.924 51,46C48.636,46.483 48.482,46.636 48,49Z" style="fill:rgb(70,37,28);fill-rule:nonzero;"/>
        </g>
        <g transform="matrix(1,0,0,1,18,0.00974638)">
            <path d="M51,46L49,50C50.996,48.756 51.558,48.308 51,46Z" style="fill:rgb(51,14,2);fill-rule:nonzero;"/>
        </g>
        <g transform="matrix(1,0,0,1,18,0.00974638)">
            <path d="M55,48L59,47C56.954,46.249 56.404,46.344 55,48Z" style="fill:rgb(101,93,86);fill-rule:nonzero;"/>
        </g>
        <g transform="matrix(1,0,0,1,18,0.00974638)">
            <path d="M62,46L61,52C63.093,50.176 63.039,48.529 62,46Z" style="fill:rgb(135,82,58);fill-rule:nonzero;"/>
        </g>
        <g transform="matrix(1,0,0,1,18,0.00974638)">
            <path d="M4,47L2,52L5,53C4.953,50.747 4.874,49.052 4,47Z" style="fill:rgb(194,122,83);fill-rule:nonzero;"/>
        </g>
        <g transform="matrix(1,0,0,1,18,0.00974638)">
            <path d="M7,47C7.031,48.832 6.921,48.559 8,50C7.749,48.548 7.685,48.248 7,47Z" style="fill:rgb(157,82,32);fill-rule:nonzero;"/>
        </g>
        <g transform="matrix(1,0,0,1,18,0.00974638)">
            <path d="M28,47L28,51L32,49C30.542,47.919 29.752,47.564 28,47Z" style="fill:rgb(30,19,14);fill-rule:nonzero;"/>
        </g>
        <g transform="matrix(1,0,0,1,18,0.00974638)">
            <path d="M36,47L36,51L42,52L42,49L37,50L38,47L36,47Z" style="fill:rgb(115,60,37);fill-rule:nonzero;"/>
        </g>
        <g transform="matrix(1,0,0,1,18,0.00974638)">
            <path d="M53,47C51.814,48.186 51.472,48.584 51,50C52.994,49.153 53.699,48.993 53,47Z" style="fill:rgb(156,89,59);fill-rule:nonzero;"/>
        </g>
        <g transform="matrix(1,0,0,1,18,0.00974638)">
            <path d="M55,54L60,55L59,49C60.915,50.277 60.085,50.277 62,49C56.993,46.07 55.164,49.022 55,54Z" style="fill:rgb(72,62,48);fill-rule:nonzero;"/>
        </g>
        <g transform="matrix(1,0,0,1,18,0.00974638)">
            <path d="M3.333,48.667C3.278,48.722 3.222,49.778 3.667,49.333C3.722,49.278 3.778,48.222 3.333,48.667Z" style="fill:rgb(231,178,109);fill-rule:nonzero;"/>
        </g>
        <g transform="matrix(1,0,0,1,18,0.00974638)">
            <path d="M5,48L5,54C6.202,51.596 6.336,50.314 5,48Z" style="fill:rgb(84,20,0);fill-rule:nonzero;"/>
        </g>
        <g transform="matrix(1,0,0,1,18,0.00974638)">
            <path d="M37,48L37,50L39,50C38.455,48.365 38.635,48.545 37,48Z" style="fill:rgb(155,105,81);fill-rule:nonzero;"/>
        </g>
        <g transform="matrix(1,0,0,1,18,0.00974638)">
            <path d="M47.333,48.667C47.278,48.722 47.222,49.778 47.667,49.333C47.722,49.278 47.778,48.222 47.333,48.667Z" style="fill:rgb(162,110,70);fill-rule:nonzero;"/>
        </g>
        <g transform="matrix(1,0,0,1,18,0.00974638)">
            <path d="M54,48C53.06,52.853 49.445,55.572 48,60C53.062,58.686 58.754,63.463 60,56C58.271,56.881 58.111,57.258 57,59C55.861,56.945 56.182,56.951 54,57C54.592,53.807 55.243,51.047 54,48Z" style="fill:rgb(37,27,22);fill-rule:nonzero;"/>
        </g>
        <g transform="matrix(1,0,0,1,18,0.00974638)">
            <path d="M8,49L9,50L8,49Z" style="fill:rgb(179,131,100);fill-rule:nonzero;"/>
        </g>
        <g transform="matrix(1,0,0,1,18,0.00974638)">
            <path d="M28,53C29.797,53 29.522,52.986 31,52C28.659,56.851 28.215,61.659 28,67C31.126,64.738 30.823,62.602 30,59L33,60L32,49C29.751,50.154 29.154,50.751 28,53Z" style="fill:rgb(18,5,0);fill-rule:nonzero;"/>
        </g>
        <g transform="matrix(1,0,0,1,18,0.00974638)">
            <path d="M33,49C34.127,51.006 34.873,51.006 36,49L33,49Z" style="fill:rgb(150,104,66);fill-rule:nonzero;"/>
        </g>
        <g transform="matrix(1,0,0,1,18,0.00974638)">
            <path d="M34,49L35,50L34,49Z" style="fill:rgb(248,200,154);fill-rule:nonzero;"/>
        </g>
        <g transform="matrix(1,0,0,1,18,0.00974638)">
            <path d="M41,50C42.498,50.479 42.35,50.4 44,50C43.209,52.232 42.923,53.646 43,56C44.591,53.686 44.858,51.81 45,49L41,50Z" style="fill:rgb(35,18,3);fill-rule:nonzero;"/>
        </g>
        <g transform="matrix(1,0,0,1,18,0.00974638)">
            <path d="M53,49C50.789,51.371 48.75,53.284 46,55C50.087,55.917 54.191,53.478 53,49Z" style="fill:rgb(62,30,11);fill-rule:nonzero;"/>
        </g>
        <g transform="matrix(1,0,0,1,18,0.00974638)">
            <path d="M59,49L59,52L61,51C60.455,49.365 60.635,49.545 59,49Z" style="fill:rgb(40,25,18);fill-rule:nonzero;"/>
        </g>
        <g transform="matrix(1,0,0,1,18,0.00974638)">
            <path d="M20,50C17.963,53.988 16.395,57.504 16,62C18.204,58.931 21.288,53.718 20,50Z" style="fill:rgb(62,30,11);fill-rule:nonzero;"/>
        </g>
        <g transform="matrix(1,0,0,1,18,0.00974638)">
            <path d="M43,50C41.814,51.186 41.472,51.584 41,53C42.994,52.153 43.699,51.993 43,50Z" style="fill:rgb(110,97,78);fill-rule:nonzero;"/>
        </g>
        <g transform="matrix(1,0,0,1,18,0.00974638)">
            <path d="M45,50L46,54C46.553,51.992 46.303,51.668 45,50Z" style="fill:rgb(197,141,99);fill-rule:nonzero;"/>
        </g>
        <g transform="matrix(1,0,0,1,18,0.00974638)">
            <path d="M50,50L49,52L51,52C51,50.147 51.3,50.65 50,50Z" style="fill:rgb(180,143,101);fill-rule:nonzero;"/>
        </g>
        <g transform="matrix(1,0,0,1,18,0.00974638)">
            <path d="M51,50L52,51L51,50Z" style="fill:rgb(218,187,153);fill-rule:nonzero;"/>
        </g>
        <g transform="matrix(1,0,0,1,18,0.00974638)">
            <path d="M36,51C37.223,52.195 37.42,52.316 39,53C37.777,51.805 37.58,51.684 36,51Z" style="fill:rgb(131,94,64);fill-rule:nonzero;"/>
        </g>
        <g transform="matrix(1,0,0,1,18,0.00974638)">
            <path d="M38,51C39.33,52.753 40.248,53.67 42,55C40.846,52.751 40.249,52.154 38,51Z" style="fill:rgb(208,160,124);fill-rule:nonzero;"/>
        </g>
        <g transform="matrix(1,0,0,1,18,0.00974638)">
            <path d="M48,51L49,52L48,51Z" style="fill:rgb(44,3,0);fill-rule:nonzero;"/>
        </g>
        <g transform="matrix(1,0,0,1,18,0.00974638)">
            <path d="M60,51L60,60C61.532,56.806 62.06,53.958 60,51Z" style="fill:rgb(10,1,0);fill-rule:nonzero;"/>
        </g>
        <g transform="matrix(1,0,0,1,18,0.00974638)">
            <path d="M2,52L3,53L2,52Z" style="fill:rgb(103,66,30);fill-rule:nonzero;"/>
        </g>
        <g transform="matrix(1,0,0,1,18,0.00974638)">
            <path d="M3,52L4,53L3,52Z" style="fill:rgb(251,232,181);fill-rule:nonzero;"/>
        </g>
        <g transform="matrix(1,0,0,1,18,0.00974638)">
            <path d="M26,52C26.013,55.765 26.246,58.629 28,62C29.089,59.25 28.624,56.867 28,54C30.33,54.048 30.006,54.203 31,52L26,52Z" style="fill:rgb(88,46,28);fill-rule:nonzero;"/>
        </g>
        <g transform="matrix(1,0,0,1,18,0.00974638)">
            <path d="M45,52L44,55L47,55C46.309,53.612 46.015,53.139 45,52Z" style="fill:rgb(162,110,70);fill-rule:nonzero;"/>
        </g>
        <g transform="matrix(1,0,0,1,18,0.00974638)">
            <path d="M62,52L62,57C63.516,54.822 63.516,54.178 62,52Z" style="fill:rgb(78,47,36);fill-rule:nonzero;"/>
        </g>
        <g transform="matrix(1,0,0,1,18,0.00974638)">
            <path d="M3.667,53.333C3.222,53.778 4.278,53.722 4.333,53.667C4.778,53.222 3.722,53.278 3.667,53.333Z" style="fill:rgb(156,89,59);fill-rule:nonzero;"/>
        </g>
        <g transform="matrix(1,0,0,1,18,0.00974638)">
            <path d="M18,59C20.667,57.278 21.901,55.98 23,53C19.718,54.252 18.728,55.575 18,59Z" style="fill:rgb(110,48,24);fill-rule:nonzero;"/>
        </g>
        <g transform="matrix(1,0,0,1,18,0.00974638)">
            <path d="M33.667,53.333C33.222,53.778 34.278,53.722 34.333,53.667C34.778,53.222 33.722,53.278 33.667,53.333Z" style="fill:rgb(70,63,56);fill-rule:nonzero;"/>
        </g>
        <g transform="matrix(1,0,0,1,18,0.00974638)">
            <path d="M38,53L38,58C40.374,56.22 40.374,54.78 38,53Z" style="fill:rgb(27,2,0);fill-rule:nonzero;"/>
        </g>
        <g transform="matrix(1,0,0,1,18,0.00974638)">
            <path d="M28.333,54.667C28.278,54.722 28.222,55.778 28.667,55.333C28.722,55.278 28.778,54.222 28.333,54.667Z" style="fill:rgb(135,82,58);fill-rule:nonzero;"/>
        </g>
        <g transform="matrix(1,0,0,1,18,0.00974638)">
            <path d="M40,54L41,55L40,54Z" style="fill:rgb(81,56,31);fill-rule:nonzero;"/>
        </g>
        <g transform="matrix(1,0,0,1,18,0.00974638)">
            <path d="M42,54L43,55L42,54Z" style="fill:rgb(131,94,64);fill-rule:nonzero;"/>
        </g>
        <g transform="matrix(1,0,0,1,18,0.00974638)">
            <path d="M54,54C54.452,56.237 54.771,56.489 57,57C56.099,55.078 55.924,55.001 54,54Z" style="fill:rgb(97,86,71);fill-rule:nonzero;"/>
        </g>
        <g transform="matrix(1,0,0,1,18,0.00974638)">
            <path d="M55,54C56.248,54.685 56.548,54.749 58,55C56.752,54.315 56.452,54.251 55,54Z" style="fill:rgb(135,129,113);fill-rule:nonzero;"/>
        </g>
        <g transform="matrix(1,0,0,1,18,0.00974638)">
            <path d="M35,55L33,56C34.482,56.791 35.796,56.87 35,55Z" style="fill:rgb(18,5,0);fill-rule:nonzero;"/>
        </g>
        <g transform="matrix(1,0,0,1,18,0.00974638)">
            <path d="M41,55L40,60C41.879,58.377 41.916,57.3 41,55Z" style="fill:rgb(162,110,70);fill-rule:nonzero;"/>
        </g>
        <g transform="matrix(1,0,0,1,18,0.00974638)">
            <path d="M42.333,55.667C42.278,55.722 42.222,56.778 42.667,56.333C42.722,56.278 42.778,55.222 42.333,55.667Z" style="fill:rgb(254,203,130);fill-rule:nonzero;"/>
        </g>
        <g transform="matrix(1,0,0,1,18,0.00974638)">
            <path d="M44.667,55.333C44.222,55.778 45.278,55.722 45.333,55.667C45.778,55.222 44.722,55.278 44.667,55.333Z" style="fill:rgb(207,139,77);fill-rule:nonzero;"/>
        </g>
        <g transform="matrix(1,0,0,1,18,0.00974638)">
            <path d="M48.667,55.333C48.222,55.778 49.278,55.722 49.333,55.667C49.778,55.222 48.722,55.278 48.667,55.333Z" style="fill:rgb(151,125,100);fill-rule:nonzero;"/>
        </g>
        <g transform="matrix(1,0,0,1,18,0.00974638)">
            <path d="M50,55L48,56C49.482,56.791 50.796,56.87 50,55Z" style="fill:rgb(89,80,65);fill-rule:nonzero;"/>
        </g>
        <g transform="matrix(1,0,0,1,18,0.00974638)">
            <path d="M57,55C56.782,56.687 56.776,57.316 57,59C57.71,57.24 57.71,56.76 57,55Z" style="fill:rgb(59,55,49);fill-rule:nonzero;"/>
        </g>
        <g transform="matrix(1,0,0,1,18,0.00974638)">
            <path d="M58,55L59,56L58,55Z" style="fill:rgb(158,153,131);fill-rule:nonzero;"/>
        </g>
        <g transform="matrix(1,0,0,1,18,0.00974638)">
            <path d="M59,55L60,56L59,55Z" style="fill:rgb(113,106,95);fill-rule:nonzero;"/>
        </g>
        <g transform="matrix(1,0,0,1,18,0.00974638)">
            <path d="M40,56L40,59C40.696,57.446 40.696,57.554 40,56Z" style="fill:rgb(80,30,2);fill-rule:nonzero;"/>
        </g>
        <g transform="matrix(1,0,0,1,18,0.00974638)">
            <path d="M43,56C42.014,57.478 42,57.203 42,59C43.388,58.309 43.861,58.015 45,57L43,56Z" style="fill:rgb(231,178,109);fill-rule:nonzero;"/>
        </g>
        <g transform="matrix(1,0,0,1,18,0.00974638)">
            <path d="M44,56C45.103,57.457 45.543,57.897 47,59C46.101,56.876 46.124,56.899 44,56Z" style="fill:rgb(254,203,130);fill-rule:nonzero;"/>
        </g>
        <g transform="matrix(1,0,0,1,18,0.00974638)">
            <path d="M46,56L47,61C44.965,62.226 44.673,62.703 44,65L49,62C48.423,59.391 48.08,57.667 46,56Z" style="fill:rgb(131,94,64);fill-rule:nonzero;"/>
        </g>
        <g transform="matrix(1,0,0,1,18,0.00974638)">
            <path d="M34.333,57.667C34.278,57.722 34.222,58.778 34.667,58.333C34.722,58.278 34.778,57.222 34.333,57.667Z" style="fill:rgb(99,64,50);fill-rule:nonzero;"/>
        </g>
        <g transform="matrix(1,0,0,1,18,0.00974638)">
            <path d="M6,58L7,59L6,58Z" style="fill:rgb(135,82,58);fill-rule:nonzero;"/>
        </g>
        <g transform="matrix(1,0,0,1,18,0.00974638)">
            <path d="M7,58L6,61L9,61C8.309,59.612 8.015,59.139 7,58Z" style="fill:rgb(80,30,2);fill-rule:nonzero;"/>
        </g>
        <g transform="matrix(1,0,0,1,18,0.00974638)">
            <path d="M19,58L20,63L18,62C17.218,65.321 15.333,67.897 14,71C15.661,70.792 15.54,70.505 16,72L18,69L18,73C21.056,72.345 23.712,66.934 21,65C22.217,62.352 22.355,60.9 22,58L19,58Z" style="fill:rgb(62,30,11);fill-rule:nonzero;"/>
        </g>
        <g transform="matrix(1,0,0,1,18,0.00974638)">
            <path d="M34,60C36.657,60.607 38.29,60.121 40,58C37.699,58.397 36.096,58.957 34,60Z" style="fill:rgb(115,73,51);fill-rule:nonzero;"/>
        </g>
        <g transform="matrix(1,0,0,1,18,0.00974638)">
            <path d="M41,61C42.797,61 42.522,60.986 44,60L44,62L47,61C44.546,58.703 43.454,58.703 41,61Z" style="fill:rgb(93,49,24);fill-rule:nonzero;"/>
        </g>
        <g transform="matrix(1,0,0,1,18,0.00974638)">
            <path d="M45,58L46,59L45,58Z" style="fill:rgb(199,156,101);fill-rule:nonzero;"/>
        </g>
        <g transform="matrix(1,0,0,1,18,0.00974638)">
            <path d="M49,58C50.435,60.524 51.096,60.9 54,61C52.337,59.497 51.104,58.801 49,58Z" style="fill:rgb(76,69,54);fill-rule:nonzero;"/>
        </g>
        <g transform="matrix(1,0,0,1,18,0.00974638)">
            <path d="M6,59L7,60L6,59Z" style="fill:rgb(179,131,100);fill-rule:nonzero;"/>
        </g>
        <g transform="matrix(1,0,0,1,18,0.00974638)">
            <path d="M18.333,59.667C18.278,59.722 18.222,60.778 18.667,60.333C18.722,60.278 18.778,59.222 18.333,59.667Z" style="fill:rgb(207,139,77);fill-rule:nonzero;"/>
        </g>
        <g transform="matrix(1,0,0,1,18,0.00974638)">
            <path d="M19.333,59.667C19.278,59.722 19.222,60.778 19.667,60.333C19.722,60.278 19.778,59.222 19.333,59.667Z" style="fill:rgb(115,38,0);fill-rule:nonzero;"/>
        </g>
        <g transform="matrix(1,0,0,1,18,0.00974638)">
            <path d="M30,59C30.685,63.332 29.283,66.74 29,71C30.661,70.792 30.54,70.505 31,72L35,70L36,76L31,73L33,80C33.685,78.752 33.749,78.452 34,77C36.433,78.462 37.177,79.288 38,82L42,82C42.97,80.4 43.72,79.337 45,78C40.28,74.524 37.75,68.649 32,67C31.99,63.906 32.409,61.104 30,59Z" style="fill:rgb(17,7,15);fill-rule:nonzero;"/>
        </g>
        <g transform="matrix(1,0,0,1,18,0.00974638)">
            <path d="M1,60C1.684,61.58 1.805,61.777 3,63C2.316,61.42 2.195,61.223 1,60Z" style="fill:rgb(189,165,135);fill-rule:nonzero;"/>
        </g>
        <g transform="matrix(1,0,0,1,18,0.00974638)">
            <path d="M17,60C17.902,61.923 18.076,61.999 20,63C19.099,61.078 18.924,61.001 17,60Z" style="fill:rgb(132,68,36);fill-rule:nonzero;"/>
        </g>
        <g transform="matrix(1,0,0,1,18,0.00974638)">
            <path d="M32,60L32,67C34.303,66.383 35.372,65.744 37,64C36.296,62.461 36.587,61.748 37,60C34.663,60.821 33.962,61.472 32,60Z" style="fill:rgb(67,34,19);fill-rule:nonzero;"/>
        </g>
        <g transform="matrix(1,0,0,1,18,0.00974638)">
            <path d="M35,64C37.076,63.968 38.394,63.774 40,65C41.608,63.55 42.064,62.949 43,61C39.025,60.164 37.32,60.616 35,64Z" style="fill:rgb(50,26,17);fill-rule:nonzero;"/>
        </g>
        <g transform="matrix(1,0,0,1,18,0.00974638)">
            <path d="M43.333,60.667C43.278,60.722 43.222,61.778 43.667,61.333C43.722,61.278 43.778,60.222 43.333,60.667Z" style="fill:rgb(115,73,51);fill-rule:nonzero;"/>
        </g>
        <g transform="matrix(1,0,0,1,18,0.00974638)">
            <path d="M49,60L48,64C51.021,63.349 51.086,62.086 49,60Z" style="fill:rgb(58,41,28);fill-rule:nonzero;"/>
        </g>
        <g transform="matrix(1,0,0,1,18,0.00974638)">
            <path d="M59,60C56.124,64.044 56.04,69.142 56,74C59.431,70.384 60.96,64.716 59,60Z" style="fill:rgb(18,5,0);fill-rule:nonzero;"/>
        </g>
        <g transform="matrix(1,0,0,1,18,0.00974638)">
            <path d="M7,63L10,63C9.232,61.686 9.314,61.768 8,61C6.7,61.65 7,61.147 7,63Z" style="fill:rgb(98,58,38);fill-rule:nonzero;"/>
        </g>
        <g transform="matrix(1,0,0,1,18,0.00974638)">
            <path d="M52,61L49,64L52,68C53.182,65.57 53.731,63.687 54,61L52,61Z" style="fill:rgb(89,80,65);fill-rule:nonzero;"/>
        </g>
        <g transform="matrix(1,0,0,1,18,0.00974638)">
            <path d="M54,61L52,69L55,71C56.422,67.631 56.923,64.65 57,61L54,61Z" style="fill:rgb(43,44,41);fill-rule:nonzero;"/>
        </g>
        <g transform="matrix(1,0,0,1,18,0.00974638)">
            <path d="M61,61C58.842,68.699 59.467,78.17 61,86C64.141,81.014 62.218,78.386 61.763,73C61.42,68.932 62.435,64.893 61,61Z" style="fill:rgb(87,44,19);fill-rule:nonzero;"/>
        </g>
        <g transform="matrix(1,0,0,1,18,0.00974638)">
            <path d="M1,62L2,63L1,62Z" style="fill:rgb(116,80,63);fill-rule:nonzero;"/>
        </g>
        <g transform="matrix(1,0,0,1,18,0.00974638)">
            <path d="M3,62L3,64L5,64C4.455,62.365 4.635,62.545 3,62Z" style="fill:rgb(103,52,30);fill-rule:nonzero;"/>
        </g>
        <g transform="matrix(1,0,0,1,18,0.00974638)">
            <path d="M8,62L9,63L8,62Z" style="fill:rgb(218,187,153);fill-rule:nonzero;"/>
        </g>
        <g transform="matrix(1,0,0,1,18,0.00974638)">
            <path d="M16.333,62.667C16.278,62.722 16.222,63.778 16.667,63.333C16.722,63.278 16.778,62.222 16.333,62.667Z" style="fill:rgb(111,56,27);fill-rule:nonzero;"/>
        </g>
        <g transform="matrix(1,0,0,1,18,0.00974638)">
            <path d="M17,62C16.782,63.687 16.776,64.316 17,66C17.71,64.24 17.71,63.76 17,62Z" style="fill:rgb(162,110,70);fill-rule:nonzero;"/>
        </g>
        <g transform="matrix(1,0,0,1,18,0.00974638)">
            <path d="M43,62L42,64L44,64C44,62.147 44.3,62.65 43,62Z" style="fill:rgb(151,125,100);fill-rule:nonzero;"/>
        </g>
        <g transform="matrix(1,0,0,1,18,0.00974638)">
            <path d="M47,62C46.594,65.44 47.705,67.804 49,71C50.421,67.481 49.413,64.798 47,62Z" style="fill:rgb(42,26,13);fill-rule:nonzero;"/>
        </g>
        <g transform="matrix(1,0,0,1,18,0.00974638)">
            <path d="M39,63L35,65C35.651,67.434 36.16,68.283 38,70L37,66C39.495,66.183 40.683,65.96 43,65C41.502,64.521 41.65,64.6 40,65C40,63.147 40.3,63.65 39,63Z" style="fill:rgb(78,47,36);fill-rule:nonzero;"/>
        </g>
        <g transform="matrix(1,0,0,1,18,0.00974638)">
            <path d="M43,64L44,65L43,64Z" style="fill:rgb(27,2,0);fill-rule:nonzero;"/>
        </g>
        <g transform="matrix(1,0,0,1,18,0.00974638)">
            <path d="M16,65L17,66L16,65Z" style="fill:rgb(225,171,132);fill-rule:nonzero;"/>
        </g>
        <g transform="matrix(1,0,0,1,18,0.00974638)">
            <path d="M42,65L43,66L42,65Z" style="fill:rgb(10,1,0);fill-rule:nonzero;"/>
        </g>
        <g transform="matrix(1,0,0,1,18,0.00974638)">
            <path d="M37,66C38.059,70.834 39.607,72.818 44,75C45.481,73.402 46.062,72.892 48,72L46,65C42.954,65.426 40.085,66.146 37,66Z" style="fill:rgb(53,40,26);fill-rule:nonzero;"/>
        </g>
        <g transform="matrix(1,0,0,1,18,0.00974638)">
            <path d="M46,65C46.408,68.146 47.347,70.291 49,73C49.531,69.82 48.013,67.441 46,65Z" style="fill:rgb(99,64,50);fill-rule:nonzero;"/>
        </g>
        <g transform="matrix(1,0,0,1,18,0.00974638)">
            <path d="M50,65L50,73C46.935,72.272 45.858,72.428 44,75C42.814,73.964 42.396,73.661 41,73L40,74L40,76C43.021,76.959 45.839,77.724 49,78C47.055,81.382 48.391,83.894 51,80C51.691,81.388 51.985,81.861 53,83C54.412,77.745 52.736,69.651 50,65Z" style="fill:rgb(68,55,40);fill-rule:nonzero;"/>
        </g>
        <g transform="matrix(1,0,0,1,18,0.00974638)">
            <path d="M44,66C43.077,67.908 43.03,67.939 43,70C44.146,68.36 44.393,67.924 44,66Z" style="fill:rgb(30,19,14);fill-rule:nonzero;"/>
        </g>
        <g transform="matrix(1,0,0,1,18,0.00974638)">
            <path d="M27,67L25,71L23,71C22.232,69.686 22.314,69.768 21,69L24,76L28,76C27.014,77.479 27,77.203 27,79C25.522,78.014 25.797,78 24,78C25.573,80.719 26.925,81.373 30,82C29.557,78.032 28.578,75.877 25,74C25.986,72.522 26,72.797 26,71L29,72L29,67L27,67Z" style="fill:rgb(103,52,30);fill-rule:nonzero;"/>
        </g>
        <g transform="matrix(1,0,0,1,18,0.00974638)">
            <path d="M31.333,68.667C31.278,68.722 31.222,69.778 31.667,69.333C31.722,69.278 31.778,68.222 31.333,68.667Z" style="fill:rgb(51,49,48);fill-rule:nonzero;"/>
        </g>
        <g transform="matrix(1,0,0,1,18,0.00974638)">
            <path d="M12,69L12,71C13.635,70.455 13.455,70.635 14,69L12,69Z" style="fill:rgb(115,73,51);fill-rule:nonzero;"/>
        </g>
        <g transform="matrix(1,0,0,1,18,0.00974638)">
            <path d="M17,69C17.406,71.092 17.217,71.02 19,72C18.309,70.612 18.015,70.139 17,69Z" style="fill:rgb(142,92,64);fill-rule:nonzero;"/>
        </g>
        <g transform="matrix(1,0,0,1,18,0.00974638)">
            <path d="M52,69L51,74C52.843,72.547 53.259,71.265 54,69L52,69Z" style="fill:rgb(37,27,22);fill-rule:nonzero;"/>
        </g>
        <g transform="matrix(1,0,0,1,18,0.00974638)">
            <path d="M13,70L14,71L13,70Z" style="fill:rgb(171,119,87);fill-rule:nonzero;"/>
        </g>
        <g transform="matrix(1,0,0,1,18,0.00974638)">
            <path d="M18,70L19,71L18,70Z" style="fill:rgb(225,171,132);fill-rule:nonzero;"/>
        </g>
        <g transform="matrix(1,0,0,1,18,0.00974638)">
            <path d="M30,70C30.013,73.19 30.17,76.057 31.639,78.972C33.003,81.679 34.359,81.986 35,79C31.929,79 31.379,74.877 33,73C32.028,71.73 31.27,70.973 30,70Z" style="fill:rgb(10,1,0);fill-rule:nonzero;"/>
        </g>
        <g transform="matrix(1,0,0,1,18,0.00974638)">
            <path d="M33,70L33,76L36,76C35.906,73.795 35.644,72.106 35,70L33,70Z" style="fill:rgb(32,32,29);fill-rule:nonzero;"/>
        </g>
        <g transform="matrix(1,0,0,1,18,0.00974638)">
            <path d="M53,70L52,75C55.083,79.576 52.457,84.219 51,89C55.865,84.882 53.54,79.567 57,75L56,70L53,70Z" style="fill:rgb(54,39,31);fill-rule:nonzero;"/>
        </g>
        <g transform="matrix(1,0,0,1,18,0.00974638)">
            <path d="M59,70C58.014,71.479 58,71.203 58,73C59.766,72.021 59.955,71.778 59,70Z" style="fill:rgb(119,86,55);fill-rule:nonzero;"/>
        </g>
        <g transform="matrix(1,0,0,1,18,0.00974638)">
            <path d="M13.667,71.333C13.222,71.778 14.278,71.722 14.333,71.667C14.778,71.222 13.722,71.278 13.667,71.333Z" style="fill:rgb(86,65,51);fill-rule:nonzero;"/>
        </g>
        <g transform="matrix(1,0,0,1,18,0.00974638)">
            <path d="M21,71L22,75C20.365,74.455 20.545,74.635 20,73C18.51,76.968 25.65,79.388 28,76L24,76C23.349,73.566 22.84,72.717 21,71Z" style="fill:rgb(80,42,23);fill-rule:nonzero;"/>
        </g>
        <g transform="matrix(1,0,0,1,18,0.00974638)">
            <path d="M26,71L25,74C26.766,73.021 26.956,72.778 26,71Z" style="fill:rgb(126,69,44);fill-rule:nonzero;"/>
        </g>
        <g transform="matrix(1,0,0,1,18,0.00974638)">
            <path d="M27,71C27.322,73.584 27.973,75.602 29,78C29.866,75.048 28.981,73.277 27,71Z" style="fill:rgb(116,80,63);fill-rule:nonzero;"/>
        </g>
        <g transform="matrix(1,0,0,1,18,0.00974638)">
            <path d="M29,71L29,75C29.71,73.241 29.71,72.76 29,71Z" style="fill:rgb(50,23,10);fill-rule:nonzero;"/>
        </g>
        <g transform="matrix(1,0,0,1,18,0.00974638)">
            <path d="M20.333,73.667C20.278,73.722 20.222,74.778 20.667,74.333C20.722,74.278 20.778,73.222 20.333,73.667Z" style="fill:rgb(179,131,100);fill-rule:nonzero;"/>
        </g>
        <g transform="matrix(1,0,0,1,18,0.00974638)">
            <path d="M21.333,73.667C21.278,73.722 21.222,74.778 21.667,74.333C21.722,74.278 21.778,73.222 21.333,73.667Z" style="fill:rgb(123,61,26);fill-rule:nonzero;"/>
        </g>
        <g transform="matrix(1,0,0,1,18,0.00974638)">
            <rect x="46" y="73" width="2" height="4" style="fill:rgb(96,79,59);fill-rule:nonzero;"/>
        </g>
        <g transform="matrix(1,0,0,1,18,0.00974638)">
            <path d="M57,73L57,81C58.161,78.23 58.161,75.77 57,73Z" style="fill:rgb(93,49,24);fill-rule:nonzero;"/>
        </g>
        <g transform="matrix(1,0,0,1,18,0.00974638)">
            <path d="M58,73L60,81C61.237,77.826 60.736,75.083 58,73Z" style="fill:rgb(123,61,26);fill-rule:nonzero;"/>
        </g>
        <g transform="matrix(1,0,0,1,18,0.00974638)">
            <path d="M48,75C48.545,76.635 48.365,76.455 50,77L50,75L48,75Z" style="fill:rgb(40,25,18);fill-rule:nonzero;"/>
        </g>
        <g transform="matrix(1,0,0,1,18,0.00974638)">
            <path d="M55,75C55.021,77.85 55.19,80.271 56,83C57.098,80.387 56.993,77.836 57,75L55,75Z" style="fill:rgb(35,18,3);fill-rule:nonzero;"/>
        </g>
        <g transform="matrix(1,0,0,1,18,0.00974638)">
            <path d="M20,76C20.302,79.783 21.078,81.155 25,81L23,76L20,76Z" style="fill:rgb(67,34,19);fill-rule:nonzero;"/>
        </g>
        <g transform="matrix(1,0,0,1,18,0.00974638)">
            <path d="M30,76L30,82L25,81C27.374,83.077 29.877,84.602 32,87C33.58,83.125 32.438,79.276 30,76Z" style="fill:rgb(74,43,28);fill-rule:nonzero;"/>
        </g>
        <g transform="matrix(1,0,0,1,18,0.00974638)">
            <path d="M34,77C34.684,78.58 34.805,78.777 36,80L36,77L34,77Z" style="fill:rgb(43,41,34);fill-rule:nonzero;"/>
        </g>
        <g transform="matrix(1,0,0,1,18,0.00974638)">
            <rect x="58" y="77" width="2" height="8" style="fill:rgb(175,90,52);fill-rule:nonzero;"/>
        </g>
        <g transform="matrix(1,0,0,1,18,0.00974638)">
            <path d="M36,78L35,83C36.879,81.377 36.916,80.3 36,78Z" style="fill:rgb(61,61,55);fill-rule:nonzero;"/>
        </g>
        <g transform="matrix(1,0,0,1,18,0.00974638)">
            <path d="M37,78L37,83L33,82L34,86C35.513,85.429 36.427,85.136 38,85L39,82C39.302,85.076 38.206,87.88 38,91L43,87C41.723,88.915 41.723,88.085 43,90C48.071,86.303 42.528,81.838 38,82C37.826,80.315 37.683,79.506 37,78Z" style="fill:rgb(36,35,36);fill-rule:nonzero;"/>
        </g>
        <g transform="matrix(1,0,0,1,18,0.00974638)">
            <path d="M43.667,78.333C43.222,78.778 44.278,78.722 44.333,78.667C44.778,78.222 43.722,78.278 43.667,78.333Z" style="fill:rgb(101,93,86);fill-rule:nonzero;"/>
        </g>
        <g transform="matrix(1,0,0,1,18,0.00974638)">
            <path d="M43,79C45.323,79.922 46.581,79.687 49,79C46.761,78.189 45.353,78.471 43,79Z" style="fill:rgb(48,37,27);fill-rule:nonzero;"/>
        </g>
        <g transform="matrix(1,0,0,1,18,0.00974638)">
            <path d="M43,80C42.014,81.479 42,81.203 42,83C44.199,84.239 46.147,85.31 48,87C48.653,84.18 46.59,82.329 45,80L43,80Z" style="fill:rgb(1,1,0);fill-rule:nonzero;"/>
        </g>
        <g transform="matrix(1,0,0,1,18,0.00974638)">
            <path d="M45,80C46.556,82.85 47.793,83.503 51,84L50,87C52.274,85.598 52.987,84.485 54,82C50.293,82.621 48.299,81.573 45,80Z" style="fill:rgb(74,76,63);fill-rule:nonzero;"/>
        </g>
        <g transform="matrix(1,0,0,1,18,0.00974638)">
            <path d="M50.333,80.667C50.278,80.722 50.222,81.778 50.667,81.333C50.722,81.278 50.778,80.222 50.333,80.667Z" style="fill:rgb(158,153,131);fill-rule:nonzero;"/>
        </g>
        <g transform="matrix(1,0,0,1,18,0.00974638)">
            <path d="M23,81L23,83C24.635,82.455 24.455,82.635 25,81L23,81Z" style="fill:rgb(115,93,66);fill-rule:nonzero;"/>
        </g>
        <g transform="matrix(1,0,0,1,18,0.00974638)">
            <path d="M51,81L50,83L52,83C52,81.147 52.3,81.65 51,81Z" style="fill:rgb(123,123,108);fill-rule:nonzero;"/>
        </g>
        <g transform="matrix(1,0,0,1,18,0.00974638)">
            <path d="M57,81C56.817,84.31 56.212,86.894 59,89L61,84L58,85C57.826,83.315 57.683,82.506 57,81Z" style="fill:rgb(139,81,42);fill-rule:nonzero;"/>
        </g>
        <g transform="matrix(1,0,0,1,18,0.00974638)">
            <path d="M24,82C25.543,83.267 26.048,83.489 28,84C28.452,88.37 29.406,91.21 34,92C32.283,93.84 31.434,94.349 29,95L29,99L25,99L25,101C27.442,101.11 29.623,101.428 32,102C30.964,103.186 30.661,103.604 30,105C35.318,104.292 38.495,105.622 40,111C36.2,111.392 33.811,112.406 31,115C31.027,112.42 31.229,111.862 33,110C30.441,108.276 28.036,108.254 25,108C25.307,110.123 25.382,110.686 27,112C25.125,115.238 26.575,116.415 30,117L29,119L54,119C51.584,115.351 48.35,113.802 44,114C42.633,109.984 37.227,102.216 41,99L38,96C40.337,95.966 40.666,95.902 42,94C40.085,92.723 40.915,92.723 39,94C37.975,90.676 35.743,88.023 34,85C32.805,85.598 33.023,85.466 32,87C29.969,83.654 27.763,82.827 24,82Z" style="fill:rgb(60,41,22);fill-rule:nonzero;"/>
        </g>
        <g transform="matrix(1,0,0,1,18,0.00974638)">
            <path d="M39,82L38,84L40,84C40,82.147 40.3,82.65 39,82Z" style="fill:rgb(67,67,67);fill-rule:nonzero;"/>
        </g>
        <g transform="matrix(1,0,0,1,18,0.00974638)">
            <path d="M55,82C54.022,86.374 52.364,90.71 51,95L48,93C47.438,94.801 47.176,96.122 47,98L50,98L50,104C54.845,100.681 57.081,87.332 55,82Z" style="fill:rgb(11,9,3);fill-rule:nonzero;"/>
        </g>
        <g transform="matrix(1,0,0,1,18,0.00974638)">
            <path d="M56,83L56,86C56.696,84.446 56.696,84.554 56,83Z" style="fill:rgb(87,37,12);fill-rule:nonzero;"/>
        </g>
        <g transform="matrix(1,0,0,1,18,0.00974638)">
            <path d="M36,84L37,89C38.314,87.388 39.187,85.915 40,84L36,84Z" style="fill:rgb(21,24,21);fill-rule:nonzero;"/>
        </g>
        <g transform="matrix(1,0,0,1,18,0.00974638)">
            <rect x="49" y="84" width="2" height="2" style="fill:rgb(90,91,80);fill-rule:nonzero;"/>
        </g>
        <g transform="matrix(1,0,0,1,18,0.00974638)">
            <path d="M35,85C35.421,87.843 35.939,89.012 38,91C37.345,88.463 36.724,86.953 35,85Z" style="fill:rgb(17,9,7);fill-rule:nonzero;"/>
        </g>
        <g transform="matrix(1,0,0,1,18,0.00974638)">
            <path d="M45,85L44,94C46.764,91.683 48.956,89.484 50,86L45,85Z" style="fill:rgb(13,13,14);fill-rule:nonzero;"/>
        </g>
        <g transform="matrix(1,0,0,1,18,0.00974638)">
            <path d="M65,103L63,102L57,110C58.042,111.454 58.008,112.143 58,114C66.523,109.466 74.549,102.458 84,100C83.737,95.864 83.522,91.342 80.911,87.863C78.229,84.29 70.231,83.536 67.344,87.228C63.784,91.782 66.298,97.774 65,103Z" style="fill:rgb(23,16,9);fill-rule:nonzero;"/>
        </g>
        <g transform="matrix(1,0,0,1,18,0.00974638)">
            <path d="M59,86L59,90L64,91C62.504,88.93 61.207,87.248 59,86Z" style="fill:rgb(94,41,20);fill-rule:nonzero;"/>
        </g>
        <g transform="matrix(1,0,0,1,18,0.00974638)">
            <path d="M39,94C41.121,94.228 40.89,94.15 42,96L45,95C44.211,92.335 43.299,89.76 43,87C39.832,88.744 39.269,90.435 39,94Z" style="fill:rgb(61,61,55);fill-rule:nonzero;"/>
        </g>
        <g transform="matrix(1,0,0,1,18,0.00974638)">
            <path d="M50,87L48,90C48.714,91.947 48.919,92.934 49,95C51.898,93.23 52.47,91.316 53,88C51.263,88.062 51.36,88.02 50,87Z" style="fill:rgb(32,32,29);fill-rule:nonzero;"/>
        </g>
        <g transform="matrix(1,0,0,1,18,0.00974638)">
            <path d="M55,87L55,91C55.71,89.241 55.71,88.76 55,87Z" style="fill:rgb(77,38,18);fill-rule:nonzero;"/>
        </g>
        <g transform="matrix(1,0,0,1,18,0.00974638)">
            <path d="M56,87C55.309,91.084 54.098,94.814 54,99C54.933,97.654 55.573,95.597 57.111,94.722C60.234,92.947 63.048,96.353 64,92C60.562,91.583 58.644,89.098 56,87Z" style="fill:rgb(119,52,15);fill-rule:nonzero;"/>
        </g>
        <g transform="matrix(1,0,0,1,18,0.00974638)">
            <path d="M66.333,88.667C66.278,88.722 66.222,89.778 66.667,89.333C66.722,89.278 66.778,88.222 66.333,88.667Z" style="fill:rgb(80,49,27);fill-rule:nonzero;"/>
        </g>
        <g transform="matrix(1,0,0,1,18,0.00974638)">
            <path d="M42,90L43,91L42,90Z" style="fill:rgb(123,123,108);fill-rule:nonzero;"/>
        </g>
        <g transform="matrix(1,0,0,1,18,0.00974638)">
            <path d="M47,90L45,94L50,93L50,91L49,90L47,90Z" style="fill:rgb(70,63,56);fill-rule:nonzero;"/>
        </g>
        <g transform="matrix(1,0,0,1,18,0.00974638)">
            <rect x="60" y="90" width="2" height="2" style="fill:rgb(175,90,52);fill-rule:nonzero;"/>
        </g>
        <g transform="matrix(1,0,0,1,18,0.00974638)">
            <path d="M62,91L62,93C63.635,92.455 63.455,92.635 64,91L62,91Z" style="fill:rgb(207,139,77);fill-rule:nonzero;"/>
        </g>
        <g transform="matrix(1,0,0,1,18,0.00974638)">
            <path d="M64,92L64,102C67.197,98.738 66.2,95.719 64,92Z" style="fill:rgb(51,14,2);fill-rule:nonzero;"/>
        </g>
        <g transform="matrix(1,0,0,1,18,0.00974638)">
            <path d="M46,93C44.814,94.186 44.472,94.584 44,96C45.82,95.137 46.388,94.926 46,93Z" style="fill:rgb(123,123,108);fill-rule:nonzero;"/>
        </g>
        <g transform="matrix(1,0,0,1,18,0.00974638)">
            <path d="M2,110C3.195,109.402 2.977,109.534 4,108C8.046,115.782 18.37,116.12 26,118C25.992,115.89 26.052,114.83 27,113C25.994,111.269 25.453,109.947 25,108L33,109C30.924,111.232 30.518,112.003 31,115C33.933,112.985 36.482,111.636 40,111C39.107,105.354 35.331,103.55 30,105L32,102C29.582,101.278 27.528,101.052 25,101L25,99L29,99L29,95C18.986,94.171 2.801,98.102 2,110Z" style="fill:rgb(50,35,22);fill-rule:nonzero;"/>
        </g>
        <g transform="matrix(1,0,0,1,18,0.00974638)">
            <path d="M46,94L45,97C46.766,96.021 46.955,95.778 46,94Z" style="fill:rgb(50,52,41);fill-rule:nonzero;"/>
        </g>
        <g transform="matrix(1,0,0,1,18,0.00974638)">
            <path d="M54,100C56.195,98.36 57.514,96.319 60,95C56.12,93.73 55.074,96.686 54,100Z" style="fill:rgb(156,89,59);fill-rule:nonzero;"/>
        </g>
        <g transform="matrix(1,0,0,1,18,0.00974638)">
            <path d="M60,94C60.564,95.752 60.919,96.542 62,98C61.966,95.663 61.902,95.334 60,94Z" style="fill:rgb(147,71,36);fill-rule:nonzero;"/>
        </g>
        <g transform="matrix(1,0,0,1,18,0.00974638)">
            <path d="M43,95C41.334,96.802 40.155,97.89 38,99L40,106L46,104C45.165,100.835 44.862,97.681 43,95Z" style="fill:rgb(6,6,5);fill-rule:nonzero;"/>
        </g>
        <g transform="matrix(1,0,0,1,18,0.00974638)">
            <path d="M57,95C56.444,99.368 55.21,102.514 56,107C57.661,106.387 58.483,105.957 60,105C59.038,103.021 58.528,101.14 58,99L61,98L61,96L57,95Z" style="fill:rgb(62,30,11);fill-rule:nonzero;"/>
        </g>
        <g transform="matrix(1,0,0,1,18,0.00974638)">
            <path d="M62,95C62.545,96.635 62.365,96.455 64,97L64,95L62,95Z" style="fill:rgb(84,20,0);fill-rule:nonzero;"/>
        </g>
        <g transform="matrix(1,0,0,1,18,0.00974638)">
            <path d="M38,96C39.449,97.646 39.792,97.454 42,97C40.63,96.418 39.494,96.203 38,96Z" style="fill:rgb(70,63,56);fill-rule:nonzero;"/>
        </g>
        <g transform="matrix(1,0,0,1,18,0.00974638)">
            <path d="M56,96L56,100C56.71,98.241 56.71,97.76 56,96Z" style="fill:rgb(103,49,19);fill-rule:nonzero;"/>
        </g>
        <g transform="matrix(1,0,0,1,18,0.00974638)">
            <path d="M44,97C44.899,99.124 44.876,99.101 47,100C45.999,98.076 45.923,97.902 44,97Z" style="fill:rgb(74,76,63);fill-rule:nonzero;"/>
        </g>
        <g transform="matrix(1,0,0,1,18,0.00974638)">
            <path d="M46,97C46.508,101.978 47.76,106.071 43,109L43,105C40.712,108.813 43.489,111.267 47,113L52,105C50.661,102.606 50.179,100.738 50,98L46,97Z" style="fill:rgb(17,17,10);fill-rule:nonzero;"/>
        </g>
        <g transform="matrix(1,0,0,1,18,0.00974638)">
            <path d="M62,97L63,98L62,97Z" style="fill:rgb(254,203,130);fill-rule:nonzero;"/>
        </g>
        <g transform="matrix(1,0,0,1,18,0.00974638)">
            <path d="M63,97L63,101C64.243,99.097 64.243,98.903 63,97Z" style="fill:rgb(170,97,61);fill-rule:nonzero;"/>
        </g>
        <g transform="matrix(1,0,0,1,18,0.00974638)">
            <path d="M58,99L58,104C61.193,102.881 61.625,101.284 62,98L58,99Z" style="fill:rgb(44,24,6);fill-rule:nonzero;"/>
        </g>
        <g transform="matrix(1,0,0,1,18,0.00974638)">
            <path d="M62,98L63,99L62,98Z" style="fill:rgb(187,110,65);fill-rule:nonzero;"/>
        </g>
        <g transform="matrix(1,0,0,1,18,0.00974638)">
            <path d="M63,98L64,99L63,98Z" style="fill:rgb(251,232,181);fill-rule:nonzero;"/>
        </g>
        <g transform="matrix(1,0,0,1,18,0.00974638)">
            <path d="M53.333,99.667C53.278,99.722 53.222,100.778 53.667,100.333C53.722,100.278 53.778,99.222 53.333,99.667Z" style="fill:rgb(115,60,37);fill-rule:nonzero;"/>
        </g>
        <g transform="matrix(1,0,0,1,18,0.00974638)">
            <path d="M62.333,99.667C62.278,99.722 62.222,100.778 62.667,100.333C62.722,100.278 62.778,99.222 62.333,99.667Z" style="fill:rgb(84,20,0);fill-rule:nonzero;"/>
        </g>
        <g transform="matrix(1,0,0,1,18,0.00974638)">
            <path d="M45,100L46,104C44.382,105.314 44.307,105.877 44,108L47,108L47,100L45,100Z" style="fill:rgb(43,41,34);fill-rule:nonzero;"/>
        </g>
        <g transform="matrix(1,0,0,1,18,0.00974638)">
            <path d="M54,100L53,104C54.303,102.332 54.553,102.008 54,100Z" style="fill:rgb(171,119,87);fill-rule:nonzero;"/>
        </g>
        <g transform="matrix(1,0,0,1,18,0.00974638)">
            <path d="M58,114C58.125,111.357 58.057,110.632 56,109L56,115L51,115L54,119C57.272,117.674 60.964,115.36 64,118L71,115L70,112L73,112L73,107C73.986,108.479 74,108.203 74,110C76.223,109.804 77.024,110.365 79,111C79,109.203 78.986,109.479 78,108L81,108L79,104L93,109C87.615,91.023 66.952,107.298 58,114Z" style="fill:rgb(50,33,18);fill-rule:nonzero;"/>
        </g>
        <g transform="matrix(1,0,0,1,18,0.00974638)">
            <path d="M62.667,101.333C62.222,101.778 63.278,101.722 63.333,101.667C63.778,101.222 62.722,101.278 62.667,101.333Z" style="fill:rgb(111,56,27);fill-rule:nonzero;"/>
        </g>
        <g transform="matrix(1,0,0,1,18,0.00974638)">
            <path d="M52,102L51,108C52.654,105.823 52.994,104.575 52,102Z" style="fill:rgb(135,82,58);fill-rule:nonzero;"/>
        </g>
        <g transform="matrix(1,0,0,1,18,0.00974638)">
            <path d="M61,102L61,105C62.015,103.861 62.309,103.388 63,102L61,102Z" style="fill:rgb(171,119,87);fill-rule:nonzero;"/>
        </g>
        <g transform="matrix(1,0,0,1,18,0.00974638)">
            <path d="M64,102L65,103L64,102Z" style="fill:rgb(86,65,51);fill-rule:nonzero;"/>
        </g>
        <g transform="matrix(1,0,0,1,18,0.00974638)">
            <path d="M53,105L56,105L55,103C53.365,103.545 53.545,103.365 53,105Z" style="fill:rgb(123,61,26);fill-rule:nonzero;"/>
        </g>
        <g transform="matrix(1,0,0,1,18,0.00974638)">
            <path d="M62,103L63,104L62,103Z" style="fill:rgb(103,63,42);fill-rule:nonzero;"/>
        </g>
        <g transform="matrix(1,0,0,1,18,0.00974638)">
            <path d="M43,104C43.168,106.403 43.197,107.46 45,109C44.449,107.175 43.924,105.648 43,104Z" style="fill:rgb(86,65,51);fill-rule:nonzero;"/>
        </g>
        <g transform="matrix(1,0,0,1,18,0.00974638)">
            <path d="M60,104L59,106L61,106C61,104.147 61.3,104.65 60,104Z" style="fill:rgb(199,156,101);fill-rule:nonzero;"/>
        </g>
        <g transform="matrix(1,0,0,1,18,0.00974638)">
            <path d="M79,104L81,108L78,108L79,111C77.365,110.455 77.545,110.635 77,109C74.738,108.781 74.974,108.996 74,107C72.856,108.919 72.826,109.732 73,112L70,112C70,113.797 70.014,113.521 71,115C68.457,115.526 67.465,115.878 66,118L73,116L72,113L76,111C76.899,113.124 76.876,113.101 79,114L78,112L81,115C84.96,113.482 88.411,111.241 92,109C88.564,106.671 83.074,104.951 79,104Z" style="fill:rgb(63,48,32);fill-rule:nonzero;"/>
        </g>
        <g transform="matrix(1,0,0,1,18,0.00974638)">
            <path d="M91,104L93,109C84.748,111.445 77.452,116.551 69,118.96C61.646,121.056 53.535,120.601 46,122C50.497,123.887 56.243,123.071 61,122.424C73.607,120.708 83.2,116.031 95,112C94.794,108.239 94.337,105.948 91,104Z" style="fill:rgb(33,20,8);fill-rule:nonzero;"/>
        </g>
        <g transform="matrix(1,0,0,1,18,0.00974638)">
            <path d="M53,105L51,111L55,110L55,105L53,105Z" style="fill:rgb(80,30,2);fill-rule:nonzero;"/>
        </g>
        <g transform="matrix(1,0,0,1,18,0.00974638)">
            <path d="M55,105L56,106L55,105Z" style="fill:rgb(197,141,99);fill-rule:nonzero;"/>
        </g>
        <g transform="matrix(1,0,0,1,18,0.00974638)">
            <path d="M50,106L48,113C50.977,111.16 51.737,109.116 50,106Z" style="fill:rgb(115,60,37);fill-rule:nonzero;"/>
        </g>
        <g transform="matrix(1,0,0,1,18,0.00974638)">
            <path d="M55,106C54.782,107.687 54.776,108.316 55,110C56.27,109.027 57.028,108.27 58,107L55,106Z" style="fill:rgb(157,82,32);fill-rule:nonzero;"/>
        </g>
        <g transform="matrix(1,0,0,1,18,0.00974638)">
            <path d="M58,106L58,108C59.635,107.455 59.455,107.635 60,106L58,106Z" style="fill:rgb(103,52,30);fill-rule:nonzero;"/>
        </g>
        <g transform="matrix(1,0,0,1,18,0.00974638)">
            <path d="M1,108C0.014,109.479 0,109.203 0,111L4,113C3.199,110.896 2.503,109.663 1,108Z" style="fill:rgb(44,28,17);fill-rule:nonzero;"/>
        </g>
        <g transform="matrix(1,0,0,1,18,0.00974638)">
            <path d="M3,108C3.934,111.127 4.873,112.066 8,113L3,108Z" style="fill:rgb(86,65,51);fill-rule:nonzero;"/>
        </g>
        <g transform="matrix(1,0,0,1,18,0.00974638)">
            <path d="M56.667,108.333C56.222,108.778 57.278,108.722 57.333,108.667C57.778,108.222 56.722,108.278 56.667,108.333Z" style="fill:rgb(98,58,38);fill-rule:nonzero;"/>
        </g>
        <g transform="matrix(1,0,0,1,18,0.00974638)">
            <path d="M50,114C52.106,114.644 53.795,114.906 56,115C54.276,113.945 54.079,113.964 52,114C52.957,112.483 53.387,111.661 54,110C51.751,111.154 51.154,111.751 50,114Z" style="fill:rgb(62,18,1);fill-rule:nonzero;"/>
        </g>
        <g transform="matrix(1,0,0,1,18,0.00974638)">
            <path d="M54.667,110.333C54.222,110.778 55.278,110.722 55.333,110.667C55.778,110.222 54.722,110.278 54.667,110.333Z" style="fill:rgb(187,110,65);fill-rule:nonzero;"/>
        </g>
        <g transform="matrix(1,0,0,1,18,0.00974638)">
            <path d="M0,114C3.772,114.634 6.373,117.136 10,115L1,111C0.315,112.248 0.251,112.548 0,114Z" style="fill:rgb(61,43,25);fill-rule:nonzero;"/>
        </g>
        <g transform="matrix(1,0,0,1,18,0.00974638)">
            <path d="M43,111C43.684,112.58 43.805,112.777 45,114C44.316,112.42 44.195,112.223 43,111Z" style="fill:rgb(90,69,45);fill-rule:nonzero;"/>
        </g>
        <g transform="matrix(1,0,0,1,18,0.00974638)">
            <path d="M47,111L46,114L51,116C49.928,113.804 48.888,112.56 47,111Z" style="fill:rgb(80,42,23);fill-rule:nonzero;"/>
        </g>
        <g transform="matrix(1,0,0,1,18,0.00974638)">
            <path d="M54.333,111.667C54.278,111.722 54.222,112.778 54.667,112.333C54.722,112.278 54.778,111.222 54.333,111.667Z" style="fill:rgb(248,200,154);fill-rule:nonzero;"/>
        </g>
        <g transform="matrix(1,0,0,1,18,0.00974638)">
            <path d="M55.333,111.667C55.278,111.722 55.222,112.778 55.667,112.333C55.722,112.278 55.778,111.222 55.333,111.667Z" style="fill:rgb(99,41,9);fill-rule:nonzero;"/>
        </g>
        <g transform="matrix(1,0,0,1,18,0.00974638)">
            <path d="M74,111C73.013,113.018 72.767,113.801 73,116C70.659,116.355 69.013,116.775 67,118C70.599,118.75 73.451,117.809 77,117C76.35,115.7 76.853,116 75,116L78,114C76.814,112.814 76.472,112.416 76,111L74,111Z" style="fill:rgb(75,57,41);fill-rule:nonzero;"/>
        </g>
        <g transform="matrix(1,0,0,1,18,0.00974638)">
            <path d="M53,112L54,113L53,112Z" style="fill:rgb(194,122,83);fill-rule:nonzero;"/>
        </g>
        <g transform="matrix(1,0,0,1,18,0.00974638)">
            <path d="M61,114C63.052,114.874 64.747,114.953 67,115C67,113.203 66.986,113.479 66,112L61,114Z" style="fill:rgb(63,48,32);fill-rule:nonzero;"/>
        </g>
        <g transform="matrix(1,0,0,1,18,0.00974638)">
            <path d="M78,112C77.722,114.329 77.29,114.343 75,115C77.239,115.811 78.647,115.529 81,115C79.999,113.076 79.923,112.902 78,112Z" style="fill:rgb(90,72,54);fill-rule:nonzero;"/>
        </g>
        <g transform="matrix(1,0,0,1,18,0.00974638)">
            <path d="M76,119C79.269,121.22 82.612,121.377 85,118C89.745,118.309 93.48,116.703 95,112C88.323,113.445 82.843,118.124 76,119Z" style="fill:rgb(38,31,22);fill-rule:nonzero;"/>
        </g>
        <g transform="matrix(1,0,0,1,18,0.00974638)">
            <path d="M1,113C2.226,115.035 2.703,115.326 5,116C3.659,114.726 2.597,113.959 1,113Z" style="fill:rgb(83,71,61);fill-rule:nonzero;"/>
        </g>
        <g transform="matrix(1,0,0,1,18,0.00974638)">
            <path d="M7,113C9.12,114.721 10.265,115.035 13,115C10.987,113.775 9.341,113.355 7,113Z" style="fill:rgb(102,83,64);fill-rule:nonzero;"/>
        </g>
        <g transform="matrix(1,0,0,1,18,0.00974638)">
            <path d="M52.667,113.333C52.222,113.778 53.278,113.722 53.333,113.667C53.778,113.222 52.722,113.278 52.667,113.333Z" style="fill:rgb(139,81,42);fill-rule:nonzero;"/>
        </g>
        <g transform="matrix(1,0,0,1,18,0.00974638)">
            <path d="M55,113L56,114L55,113Z" style="fill:rgb(171,119,87);fill-rule:nonzero;"/>
        </g>
        <g transform="matrix(1,0,0,1,18,0.00974638)">
            <path d="M11,115C13.682,116.989 15.711,117.482 19,117C16.439,115.768 13.822,115.365 11,115Z" style="fill:rgb(151,125,100);fill-rule:nonzero;"/>
        </g>
        <g transform="matrix(1,0,0,1,18,0.00974638)">
            <path d="M4,116C5.872,117.723 6.464,117.967 9,118C7.307,116.938 5.96,116.48 4,116Z" style="fill:rgb(131,115,96);fill-rule:nonzero;"/>
        </g>
        <g transform="matrix(1,0,0,1,18,0.00974638)">
            <path d="M8,116L10,120C11.388,119.309 11.861,119.015 13,118C11.255,117.11 9.875,116.547 8,116Z" style="fill:rgb(101,79,47);fill-rule:nonzero;"/>
        </g>
        <g transform="matrix(1,0,0,1,18,0.00974638)">
            <path d="M10,116C14.331,120.001 19.283,120.815 25,120C20.538,117.993 14.863,116.718 10,116Z" style="fill:rgb(81,56,31);fill-rule:nonzero;"/>
        </g>
        <g transform="matrix(1,0,0,1,18,0.00974638)">
            <path d="M56,119C59.206,118.735 61.928,118.563 64,116C60.717,116.298 58.078,116.263 56,119Z" style="fill:rgb(67,45,26);fill-rule:nonzero;"/>
        </g>
        <g transform="matrix(1,0,0,1,18,0.00974638)">
            <path d="M18,117C19.81,118.24 19.777,118.184 22,118C20.494,117.317 19.685,117.174 18,117Z" style="fill:rgb(177,159,130);fill-rule:nonzero;"/>
        </g>
        <g transform="matrix(1,0,0,1,18,0.00974638)">
            <path d="M22,117C23.248,117.685 23.548,117.749 25,118C23.752,117.315 23.452,117.251 22,117Z" style="fill:rgb(90,72,54);fill-rule:nonzero;"/>
        </g>
        <g transform="matrix(1,0,0,1,18,0.00974638)">
            <path d="M26,117C27.506,117.683 28.315,117.826 30,118C28.494,117.317 27.685,117.174 26,117Z" style="fill:rgb(40,13,1);fill-rule:nonzero;"/>
        </g>
        <g transform="matrix(1,0,0,1,18,0.00974638)">
            <path d="M5.667,118.333C5.222,118.778 6.278,118.722 6.333,118.667C6.778,118.222 5.722,118.278 5.667,118.333Z" style="fill:rgb(41,31,21);fill-rule:nonzero;"/>
        </g>
        <g transform="matrix(1,0,0,1,18,0.00974638)">
            <path d="M8.667,118.333C8.222,118.778 9.278,118.722 9.333,118.667C9.778,118.222 8.722,118.278 8.667,118.333Z" style="fill:rgb(161,138,111);fill-rule:nonzero;"/>
        </g>
        <g transform="matrix(1,0,0,1,18,0.00974638)">
            <path d="M21,118C22.769,118.779 24.036,118.912 26,119C24.231,118.221 22.964,118.088 21,118Z" style="fill:rgb(226,208,173);fill-rule:nonzero;"/>
        </g>
        <g transform="matrix(1,0,0,1,18,0.00974638)">
            <path d="M25,119C26.659,119.406 27.242,119.309 29,119C27.191,118.426 26.931,118.535 25,119Z" style="fill:rgb(145,117,85);fill-rule:nonzero;"/>
        </g>
        <g transform="matrix(1,0,0,1,18,0.00974638)">
            <path d="M47,120C50.657,121.081 54.199,121 58,121C54.806,118.568 50.537,117.98 47,120Z" style="fill:rgb(86,65,51);fill-rule:nonzero;"/>
        </g>
        <g transform="matrix(1,0,0,1,18,0.00974638)">
            <path d="M57,119C60.432,120.44 64.3,120 68,120L68,118C64.237,118.01 60.701,118.313 57,119Z" style="fill:rgb(96,79,59);fill-rule:nonzero;"/>
        </g>
        <g transform="matrix(1,0,0,1,18,0.00974638)">
            <path d="M11,119C12.223,120.195 12.42,120.316 14,121C13.02,119.217 13.092,119.406 11,119Z" style="fill:rgb(177,159,130);fill-rule:nonzero;"/>
        </g>
        <g transform="matrix(1,0,0,1,18,0.00974638)">
            <path d="M14,119L15,120L14,119Z" style="fill:rgb(131,106,83);fill-rule:nonzero;"/>
        </g>
        <g transform="matrix(1,0,0,1,18,0.00974638)">
            <path d="M27,119C30.867,120.638 35.793,120.819 40,121L40,119L27,119Z" style="fill:rgb(161,138,111);fill-rule:nonzero;"/>
        </g>
        <g transform="matrix(1,0,0,1,18,0.00974638)">
            <path d="M40,122C42.76,121.176 45.121,120.956 48,121C44.943,118.697 42.15,118.686 40,122Z" style="fill:rgb(115,93,66);fill-rule:nonzero;"/>
        </g>
        <g transform="matrix(1,0,0,1,18,0.00974638)">
            <path d="M11,120L12,121L11,120Z" style="fill:rgb(59,47,37);fill-rule:nonzero;"/>
        </g>
        <g transform="matrix(1,0,0,1,18,0.00974638)">
            <path d="M14.667,120.333C14.222,120.778 15.278,120.722 15.333,120.667C15.778,120.222 14.722,120.278 14.667,120.333Z" style="fill:rgb(218,187,153);fill-rule:nonzero;"/>
        </g>
        <g transform="matrix(1,0,0,1,18,0.00974638)">
            <path d="M15,121C16.847,121.468 18.069,121.301 20,121C17.956,120.226 17.155,120.408 15,121Z" style="fill:rgb(131,106,83);fill-rule:nonzero;"/>
        </g>
        <g transform="matrix(1,0,0,1,18,0.00974638)">
            <path d="M22,120C23.506,120.683 24.315,120.826 26,121C24.494,120.317 23.685,120.174 22,120Z" style="fill:rgb(63,39,15);fill-rule:nonzero;"/>
        </g>
        <g transform="matrix(1,0,0,1,18,0.00974638)">
            <path d="M26,120C28.332,120.985 30.457,120.981 33,121C30.668,120.015 28.543,120.019 26,120Z" style="fill:rgb(73,56,35);fill-rule:nonzero;"/>
        </g>
        <g transform="matrix(1,0,0,1,18,0.00974638)">
            <path d="M33.667,120.333C33.222,120.778 34.278,120.722 34.333,120.667C34.778,120.222 33.722,120.278 33.667,120.333Z" style="fill:rgb(102,83,64);fill-rule:nonzero;"/>
        </g>
        <g transform="matrix(1,0,0,1,18,0.00974638)">
            <path d="M42.667,120.333C42.222,120.778 43.278,120.722 43.333,120.667C43.778,120.222 42.722,120.278 42.667,120.333Z" style="fill:rgb(161,138,111);fill-rule:nonzero;"/>
        </g>
        <g transform="matrix(1,0,0,1,18,0.00974638)">
            <path d="M68,121L68,123C71.458,122.718 74.664,121.938 78,121C74.751,119.732 71.433,120.729 68,121Z" style="fill:rgb(66,54,48);fill-rule:nonzero;"/>
        </g>
        <g transform="matrix(1,0,0,1,18,0.00974638)">
            <path d="M17,121C18.506,121.683 19.315,121.826 21,122C19.494,121.317 18.685,121.174 17,121Z" style="fill:rgb(189,165,135);fill-rule:nonzero;"/>
        </g>
        <g transform="matrix(1,0,0,1,18,0.00974638)">
            <path d="M20,122C21.659,122.406 22.242,122.309 24,122C22.191,121.426 21.931,121.535 20,122Z" style="fill:rgb(161,138,111);fill-rule:nonzero;"/>
        </g>
        <g transform="matrix(1,0,0,1,18,0.00974638)">
            <path d="M24.667,121.333C24.222,121.778 25.278,121.722 25.333,121.667C25.778,121.222 24.722,121.278 24.667,121.333Z" style="fill:rgb(98,58,38);fill-rule:nonzero;"/>
        </g>
        <g transform="matrix(1,0,0,1,18,0.00974638)">
            <path d="M26,121C32.689,123.832 41.977,123.304 49,122C42.699,119.36 32.834,121 26,121Z" style="fill:rgb(58,35,14);fill-rule:nonzero;"/>
        </g>
        <g transform="matrix(1,0,0,1,18,0.00974638)">
            <path d="M74,122C75.809,122.574 76.069,122.465 78,122C76.341,121.594 75.758,121.691 74,122Z" style="fill:rgb(36,28,20);fill-rule:nonzero;"/>
        </g>
        <g transform="matrix(1,0,0,1,18,0.00974638)">
            <path d="M15,122C16.506,122.683 17.315,122.826 19,123C17.494,122.317 16.685,122.174 15,122Z" style="fill:rgb(23,16,6);fill-rule:nonzero;"/>
        </g>
        <g transform="matrix(1,0,0,1,18,0.00974638)">
            <path d="M19,122L20,123L19,122Z" style="fill:rgb(96,79,59);fill-rule:nonzero;"/>
        </g>
        <g transform="matrix(1,0,0,1,18,0.00974638)">
            <path d="M22,122C23.506,122.683 24.315,122.826 26,123C24.494,122.317 23.685,122.174 22,122Z" style="fill:rgb(218,187,153);fill-rule:nonzero;"/>
        </g>
        <g transform="matrix(1,0,0,1,18,0.00974638)">
            <path d="M26,122C28.104,124.409 30.906,123.99 34,124C31.465,122.861 28.744,122.518 26,122Z" style="fill:rgb(171,148,121);fill-rule:nonzero;"/>
        </g>
        <g transform="matrix(1,0,0,1,18,0.00974638)">
            <path d="M28,122C29.248,122.685 29.548,122.749 31,123C29.752,122.315 29.452,122.251 28,122Z" style="fill:rgb(131,94,64);fill-rule:nonzero;"/>
        </g>
        <g transform="matrix(1,0,0,1,18,0.00974638)">
            <path d="M31,122C32.248,122.685 32.548,122.749 34,123C32.752,122.315 32.452,122.251 31,122Z" style="fill:rgb(103,63,42);fill-rule:nonzero;"/>
        </g>
        <g transform="matrix(1,0,0,1,18,0.00974638)">
            <path d="M35.667,122.333C35.222,122.778 36.278,122.722 36.333,122.667C36.778,122.222 35.722,122.278 35.667,122.333Z" style="fill:rgb(90,69,45);fill-rule:nonzero;"/>
        </g>
        <g transform="matrix(1,0,0,1,18,0.00974638)">
            <path d="M60.667,122.333C60.222,122.778 61.278,122.722 61.333,122.667C61.778,122.222 60.722,122.278 60.667,122.333Z" style="fill:rgb(61,43,25);fill-rule:nonzero;"/>
        </g>
        <g transform="matrix(1,0,0,1,18,0.00974638)">
            <path d="M62,122C64.224,123.569 65.294,123.484 68,123C65.948,122.126 64.253,122.047 62,122Z" style="fill:rgb(96,79,59);fill-rule:nonzero;"/>
        </g>
        <g transform="matrix(1,0,0,1,18,0.00974638)">
            <path d="M19,123C30.597,128.699 47.411,126 60,126C54.004,123.484 45.463,125.073 39,124.996C32.274,124.916 25.724,123.139 19,123Z" style="fill:rgb(37,18,13);fill-rule:nonzero;"/>
        </g>
        <g transform="matrix(1,0,0,1,18,0.00974638)">
            <path d="M25,123L26,124L25,123Z" style="fill:rgb(145,117,85);fill-rule:nonzero;"/>
        </g>
        <g transform="matrix(1,0,0,1,18,0.00974638)">
            <path d="M34,123C36.603,124.561 38.978,124.862 42,125L42,123L34,123Z" style="fill:rgb(131,115,96);fill-rule:nonzero;"/>
        </g>
        <g transform="matrix(1,0,0,1,18,0.00974638)">
            <path d="M42,123L42,125L63,125C56.88,121.746 48.746,123 42,123Z" style="fill:rgb(72,62,48);fill-rule:nonzero;"/>
        </g>
        <g transform="matrix(1,0,0,1,18,0.00974638)">
            <path d="M59,123C60.506,123.683 61.315,123.826 63,124C61.494,123.317 60.685,123.174 59,123Z" style="fill:rgb(131,115,96);fill-rule:nonzero;"/>
        </g>
        <g transform="matrix(1,0,0,1,18,0.00974638)">
            <path d="M66.667,123.333C66.222,123.778 67.278,123.722 67.333,123.667C67.778,123.222 66.722,123.278 66.667,123.333Z" style="fill:rgb(68,55,40);fill-rule:nonzero;"/>
        </g>
        <g transform="matrix(1,0,0,1,18,0.00974638)">
            <path d="M32,124C33.769,124.779 35.036,124.912 37,125C35.231,124.221 33.964,124.088 32,124Z" style="fill:rgb(90,72,54);fill-rule:nonzero;"/>
        </g>
        <g transform="matrix(1,0,0,1,18,0.00974638)">
            <path d="M66.667,124.333C66.222,124.778 67.278,124.722 67.333,124.667C67.778,124.222 66.722,124.278 66.667,124.333Z" style="fill:rgb(32,24,18);fill-rule:nonzero;"/>
        </g>
        <g transform="matrix(1,0,0,1,18,0.00974638)">
            <path d="M27,125C28.506,125.683 29.315,125.826 31,126C29.494,125.317 28.685,125.174 27,125Z" style="fill-rule:nonzero;"/>
        </g>
    </g>
</svg>
